<svg version="1.1" xmlns="http://www.w3.org/2000/svg" xmlns:xlink="http://www.w3.org/1999/xlink" width="93.16066" height="64.66228" viewBox="0,0,93.16066,64.66228"><g transform="translate(-201.20015,-138.92958)"><g data-paper-data="{&quot;isPaintingLayer&quot;:true}" fill="none" fill-rule="nonzero" stroke="none" stroke-width="none" stroke-linecap="butt" stroke-linejoin="miter" stroke-miterlimit="10" stroke-dasharray="" stroke-dashoffset="0" font-family="none" font-weight="none" font-size="none" text-anchor="none" style="mix-blend-mode: normal"><path d="M201.90248,144.09322l3.52754,-4.46131l23.52323,18.59974l-3.52754,4.46131z" data-paper-data="{&quot;origRot&quot;:0,&quot;origPos&quot;:null}" fill="#00ff13" stroke="#000000" stroke-width="1"/><path d="M254.64271,191.68339v-20.52109h29.18552v20.52109z" data-paper-data="{&quot;origPos&quot;:null}" fill="#00ff13" stroke="#000000" stroke-width="1"/><path d="M267.40844,174.13433c0,15.99282 -13.06681,28.95753 -29.18553,28.95753c-16.11872,0 -29.18554,-12.96474 -29.18554,-28.95753c0,-15.99282 13.06682,-28.95752 29.18554,-28.95752c16.11872,0 29.18553,12.96474 29.18553,28.95752z" data-paper-data="{&quot;origPos&quot;:null}" fill="#00ff13" stroke="#000000" stroke-width="1"/><path d="M248.71144,167.522c0,-2.51854 2.0417,-4.56025 4.56024,-4.56025c2.51854,0 4.56024,2.04171 4.56024,4.56025c0,2.51854 -2.0417,4.56023 -4.56024,4.56023c-2.51854,0 -4.56024,-2.04169 -4.56024,-4.56023z" data-paper-data="{&quot;origPos&quot;:null}" fill="#000000" stroke="none" stroke-width="0.5"/><path d="M289.98459,171.1623c2.14079,0 3.87622,4.59381 3.87622,10.26055c0,5.66674 -1.73543,10.26054 -3.87622,10.26054c-2.14079,0 -3.87621,-4.59381 -3.87621,-10.26054c0,-5.66674 1.73542,-10.26055 3.87621,-10.26055z" data-paper-data="{&quot;origPos&quot;:null}" fill="#00ff13" stroke="#000000" stroke-width="1"/><path d="M285.88037,173.89845c2.89634,0 5.24427,3.2667 5.24427,7.29639c0,4.02969 -2.34793,7.29639 -5.24427,7.29639c-2.89634,0 -5.24426,-3.26671 -5.24426,-7.29639c0,-4.02969 2.34792,-7.29639 5.24426,-7.29639z" data-paper-data="{&quot;origPos&quot;:null}" fill="#00ff13" stroke="#000000" stroke-width="1"/><path d="M285.19632,175.26653c4.78524,0 8.66446,2.65417 8.66446,5.92831c0,3.27414 -3.87922,5.92832 -8.66446,5.92832c-4.78523,0 -8.66447,-2.65418 -8.66447,-5.92832c0,-3.27414 3.87923,-5.92831 8.66447,-5.92831z" data-paper-data="{&quot;origPos&quot;:null}" fill="#00ff13" stroke="#000000" stroke-width="0"/></g></g></svg>