<svg version="1.1" xmlns="http://www.w3.org/2000/svg" xmlns:xlink="http://www.w3.org/1999/xlink" width="84.5" height="123.19592"><defs><linearGradient x1="244.09009" y1="156.13715" x2="250.62435" y2="156.13715" gradientUnits="userSpaceOnUse" id="color-1"><stop offset="0" stop-color="#00b9ff"/><stop offset="1" stop-color="#b4ffe6"/></linearGradient><linearGradient x1="232.41082" y1="156.31823" x2="238.94508" y2="156.31823" gradientUnits="userSpaceOnUse" id="color-2"><stop offset="0" stop-color="#00b9ff"/><stop offset="1" stop-color="#b4ffe6"/></linearGradient></defs><g transform="translate(-198.75,-128.5625)"><g data-paper-data="{&quot;isPaintingLayer&quot;:true}" fill="none" fill-rule="nonzero" stroke="none" stroke-width="none" stroke-linecap="none" stroke-linejoin="miter" stroke-miterlimit="10" stroke-dasharray="" stroke-dashoffset="0" font-family="none" font-weight="none" font-size="none" text-anchor="none" style="mix-blend-mode: normal"><text transform="translate(205.0892,245.50842) scale(0.5,0.5)" font-size="40" xml:space="preserve" data-paper-data="{&quot;origPos&quot;:null}" fill="#ffffff" fill-rule="nonzero" stroke="none" stroke-width="1" stroke-linecap="butt" stroke-linejoin="miter" stroke-miterlimit="10" stroke-dasharray="" stroke-dashoffset="0" font-family="Sans Serif" font-weight="normal" text-anchor="start" style="mix-blend-mode: normal"><tspan x="0" dy="0">50 Euro</tspan></text><path d="M199,226.8125v-98h84v98z" data-paper-data="{&quot;origPos&quot;:null}" fill="#ff0000" stroke="#000000" stroke-width="0.5" stroke-linecap="butt"/><path d="M247.2225,163.02942c3.91278,-1.05317 8.55938,3.57188 10.37849,10.33031c1.8191,6.75844 0.12184,13.091 -3.79094,14.14416c-3.91278,1.05317 -8.55939,-3.57188 -10.37849,-10.33031c-1.8191,-6.75844 -0.12183,-13.091 3.79094,-14.14416z" data-paper-data="{&quot;origPos&quot;:null,&quot;origRot&quot;:0,&quot;index&quot;:null}" fill="#fffe00" stroke="#000000" stroke-width="0.5" stroke-linecap="butt"/><path d="M238.58822,177.44519c-1.8191,6.75844 -6.46571,11.38348 -10.37849,10.33031c-3.91278,-1.05317 -5.61004,-7.38572 -3.79094,-14.14416c1.8191,-6.75844 6.46571,-11.38348 10.37849,-10.33031c3.91278,1.05317 5.61005,7.38572 3.79094,14.14416z" data-paper-data="{&quot;origPos&quot;:null,&quot;origRot&quot;:0}" fill="#fffe00" stroke="#000000" stroke-width="0.5" stroke-linecap="butt"/><path d="M238.08534,202.23847v-29.93226h5.71035v29.93226z" data-paper-data="{&quot;origPos&quot;:null}" fill="#00ff13" stroke="#000000" stroke-width="0.5" stroke-linecap="butt"/><path d="M221.27524,156.25958c6.99033,0.34778 12.49389,3.91048 12.29253,7.95751c-0.20135,4.04703 -6.03135,7.04587 -13.02167,6.69809c-6.99033,-0.34778 -12.49388,-3.91047 -12.29253,-7.9575c0.20135,-4.04703 6.03134,-7.04588 13.02167,-6.69809z" data-paper-data="{&quot;origPos&quot;:null,&quot;origRot&quot;:0}" fill="#fffe00" stroke="#000000" stroke-width="0.5" stroke-linecap="butt"/><path d="M229.34303,175.56715c-4.69139,5.19389 -10.93217,7.20255 -13.93915,4.48649c-3.00698,-2.71607 -1.64151,-9.12836 3.04989,-14.32225c4.69139,-5.19389 10.93216,-7.20255 13.93914,-4.48648c3.00698,2.71607 1.64151,9.12835 -3.04988,14.32224z" data-paper-data="{&quot;origPos&quot;:null,&quot;origRot&quot;:0}" fill="#fffe00" stroke="#000000" stroke-width="0.5" stroke-linecap="butt"/><path d="M224.91329,146.25285c6.17212,3.30008 9.6268,8.87208 7.71623,12.44541c-1.91057,3.57334 -8.46289,3.79486 -14.63502,0.49478c-6.17212,-3.30008 -9.6268,-8.87207 -7.71622,-12.44541c1.91057,-3.57334 8.46289,-3.79486 14.63502,-0.49478z" data-paper-data="{&quot;origPos&quot;:null,&quot;origRot&quot;:0}" fill="#fffe00" stroke="#000000" stroke-width="0.5" stroke-linecap="butt"/><path d="M261.90504,171.19583c-6.99895,-0.01801 -12.66427,-3.31743 -12.65384,-7.36945c0.01043,-4.05202 5.69266,-7.32224 12.6916,-7.30422c6.99895,0.01801 12.66427,3.31743 12.65384,7.36945c-0.01043,4.05202 -5.69266,7.32224 -12.6916,7.30422z" data-paper-data="{&quot;origPos&quot;:null,&quot;origRot&quot;:0}" fill="#fffe00" stroke="#000000" stroke-width="0.5" stroke-linecap="butt"/><path d="M266.82166,160.10659c-6.26629,3.11756 -12.8093,2.70389 -14.6142,-0.92397c-1.8049,-3.62785 1.81177,-9.0961 8.07807,-12.21365c6.26629,-3.11756 12.80929,-2.70389 14.61419,0.92397c1.8049,3.62785 -1.81176,9.09609 -8.07806,12.21365z" data-paper-data="{&quot;origPos&quot;:null,&quot;origRot&quot;:0}" fill="#fffe00" stroke="#000000" stroke-width="0.5" stroke-linecap="butt"/><path d="M262.5457,151.80665c-4.30794,5.51609 -10.3891,7.96591 -13.58262,5.47184c-3.19352,-2.49407 -2.2901,-8.98759 2.01784,-14.50368c4.30794,-5.51609 10.38909,-7.96591 13.58262,-5.47184c3.19352,2.49407 2.29011,8.98759 -2.01784,14.50368z" data-paper-data="{&quot;origPos&quot;:null,&quot;origRot&quot;:0}" fill="#fffe00" stroke="#000000" stroke-width="0.5" stroke-linecap="butt"/><path d="M254.69038,145.89601c-1.51964,6.83201 -5.95801,11.65723 -9.91339,10.77743c-3.95537,-0.8798 -5.92992,-7.13144 -4.41028,-13.96345c1.51964,-6.832 5.95801,-11.65723 9.91339,-10.77743c3.95537,0.8798 5.92992,7.13144 4.41028,13.96345z" data-paper-data="{&quot;origPos&quot;:null,&quot;origRot&quot;:0}" fill="#fffe00" stroke="#000000" stroke-width="0.5" stroke-linecap="butt"/><path d="M243.60419,142.13872c1.2873,6.87957 -0.89792,13.06073 -4.88083,13.80601c-3.98291,0.74528 -8.25526,-4.22754 -9.54256,-11.10712c-1.2873,-6.87957 0.89792,-13.06073 4.88083,-13.80601c3.98291,-0.74528 8.25526,4.22754 9.54256,11.10711z" data-paper-data="{&quot;origPos&quot;:null,&quot;origRot&quot;:0}" fill="#fffe00" stroke="#000000" stroke-width="0.5" stroke-linecap="butt"/><path d="M253.10318,175.80547c-3.88233,-5.8235 -4.29644,-12.36647 -0.92494,-14.61413c3.3715,-2.24766 9.25189,0.65112 13.13422,6.47462c3.88233,5.8235 4.29644,12.36647 0.92494,14.61413c-3.3715,2.24766 -9.25189,-0.65112 -13.13422,-6.47461z" data-paper-data="{&quot;origPos&quot;:null,&quot;origRot&quot;:0,&quot;index&quot;:null}" fill="#fffe00" stroke="#000000" stroke-width="0.5" stroke-linecap="butt"/><path d="M233.26236,142.13452c3.88233,5.8235 4.29644,12.36647 0.92494,14.61413c-3.3715,2.24766 -9.25189,-0.65112 -13.13422,-6.47462c-3.88233,-5.8235 -4.29644,-12.36647 -0.92494,-14.61413c3.3715,-2.24766 9.25189,0.65112 13.13422,6.47461z" data-paper-data="{&quot;origPos&quot;:null,&quot;origRot&quot;:0}" fill="#fffe00" stroke="#000000" stroke-width="0.5" stroke-linecap="butt"/><path d="M259.30048,159.37278c0,8.06108 -8.24712,14.59587 -18.42046,14.59587c-10.17334,0 -18.42046,-6.5348 -18.42046,-14.59587c0,-8.06108 8.24712,-14.59587 18.42046,-14.59587c10.17333,0 18.42046,6.53479 18.42046,14.59587z" data-paper-data="{&quot;origPos&quot;:null}" fill="#b17713" stroke="#000000" stroke-width="0.5" stroke-linecap="butt"/><path d="M250.62435,156.13715c0,1.03585 -1.46274,1.87558 -3.26713,1.87558c-1.80439,0 -3.26713,-0.83972 -3.26713,-1.87558c0,-1.03585 1.46274,-1.87558 3.26713,-1.87558c1.80439,0 3.26713,0.83972 3.26713,1.87558z" data-paper-data="{&quot;origPos&quot;:null}" fill="url(#color-1)" stroke="#000000" stroke-width="2" stroke-linecap="butt"/><path d="M249.82987,166.83261c0,0 -1.27833,2.02828 -2.35509,2.17677c-0.70095,0.09667 -4.60127,0.77733 -6.27502,0.73592c-2.40174,-0.05942 -4.04129,-0.31296 -6.40192,-0.75942c-0.99859,-0.18887 -2.84527,-2.48954 -2.84527,-2.48954" data-paper-data="{&quot;origPos&quot;:null,&quot;origRot&quot;:0}" fill="none" stroke="#000000" stroke-width="0.5" stroke-linecap="round"/><path d="M226.05524,184.73671l4.21995,-5.15773l9.91872,8.11531l-4.21995,5.15773z" data-paper-data="{&quot;origRot&quot;:0,&quot;origPos&quot;:null}" fill="#00ff13" stroke="#000000" stroke-width="1" stroke-linecap="butt"/><path d="M246.59184,192.13322l-3.71889,-4.50599l8.74097,-7.08986l3.71889,4.50601z" data-paper-data="{&quot;origRot&quot;:0,&quot;origPos&quot;:null,&quot;index&quot;:null}" fill="#00ff13" stroke="#000000" stroke-width="1" stroke-linecap="butt"/><path d="M224.84903,224.29327v-18.57819h29.33398v18.57819z" data-paper-data="{&quot;origPos&quot;:null}" fill="#a30000" stroke="#000000" stroke-width="1" stroke-linecap="butt"/><path d="M221.26376,206.36695v-13.03732h37.80824v13.03732z" data-paper-data="{&quot;origPos&quot;:null}" fill="#a30000" stroke="#000000" stroke-width="1" stroke-linecap="butt"/><path d="M238.94508,156.31823c0,1.03585 -1.46274,1.87558 -3.26713,1.87558c-1.80439,0 -3.26713,-0.83973 -3.26713,-1.87558c0,-1.03585 1.46275,-1.87558 3.26713,-1.87558c1.80439,0 3.26713,0.83972 3.26713,1.87558z" data-paper-data="{&quot;origPos&quot;:null}" fill="url(#color-2)" stroke="#000000" stroke-width="2" stroke-linecap="butt"/></g></g></svg>