<svg version="1.1" xmlns="http://www.w3.org/2000/svg" xmlns:xlink="http://www.w3.org/1999/xlink" width="51.6032" height="29.13438" viewBox="0,0,51.6032,29.13438"><g transform="translate(-214.46983,-187.44452)"><g data-paper-data="{&quot;isPaintingLayer&quot;:true}" fill="none" fill-rule="nonzero" stroke="#000000" stroke-width="none" stroke-linecap="butt" stroke-linejoin="miter" stroke-miterlimit="10" stroke-dasharray="" stroke-dashoffset="0" font-family="none" font-weight="none" font-size="none" text-anchor="none" style="mix-blend-mode: normal"><path d="M223.57714,206.81296l1.78722,-2.43966l14.30411,8.20279l-1.78722,2.43966z" data-paper-data="{&quot;origPos&quot;:null,&quot;origRot&quot;:0}" fill="#ff0000" stroke-width="1"/><path d="M241.86436,215.01573l-1.78722,-2.43966l14.30411,-8.20279l1.78722,2.43966z" data-paper-data="{&quot;origPos&quot;:null,&quot;origRot&quot;:0,&quot;index&quot;:null}" fill="#ff0000" stroke-width="1"/><path d="M237.49946,213.69453v-25.25h5v25.25z" data-paper-data="{&quot;origPos&quot;:null}" fill="#ff0000" stroke-width="2"/><path d="M215.1751,213.62084l7.87773,-9.10543l2.31494,2.00281l-7.87773,9.10543z" data-paper-data="{&quot;origPos&quot;:null,&quot;origRot&quot;:0}" fill="#ff0000" stroke-width="1"/><path d="M263.05283,215.87363l-7.87773,-9.10543l2.31494,-2.00281l7.87773,9.10543z" data-paper-data="{&quot;origPos&quot;:null,&quot;origRot&quot;:0,&quot;index&quot;:null}" fill="#ff0000" stroke-width="1"/><path d="M252.088,210.67343l-3.02901,-4.98886l1.25719,-0.83045l3.02901,4.98886z" data-paper-data="{&quot;origPos&quot;:null,&quot;origRot&quot;:0}" fill="#2800ff" stroke-width="1"/><path d="M248.30428,213.00694l-3.02901,-4.98886l1.25719,-0.83045l3.02901,4.98886z" data-paper-data="{&quot;origPos&quot;:null,&quot;origRot&quot;:0}" fill="#2800ff" stroke-width="1"/><path d="M230.53005,211.84331l3.02901,-4.98886l1.25719,0.83045l-3.02901,4.98886z" data-paper-data="{&quot;origPos&quot;:null,&quot;origRot&quot;:0,&quot;index&quot;:null}" fill="#2800ff" stroke-width="1"/><path d="M226.85572,209.80746l3.02901,-4.98886l1.25719,0.83045l-3.02901,4.98886z" data-paper-data="{&quot;origPos&quot;:null,&quot;origRot&quot;:0,&quot;index&quot;:null}" fill="#2800ff" stroke-width="1"/></g></g></svg>