<svg version="1.1" xmlns="http://www.w3.org/2000/svg" xmlns:xlink="http://www.w3.org/1999/xlink" width="51.6032" height="29.13437" viewBox="0,0,51.6032,29.13437"><defs><linearGradient x1="223.57715" y1="209.69454" x2="239.66848" y2="209.69454" gradientUnits="userSpaceOnUse" id="color-1"><stop offset="0" stop-color="#7f0000"/><stop offset="1" stop-color="#ff0001"/></linearGradient><linearGradient x1="215.17511" y1="210.06955" x2="225.36778" y2="210.06955" gradientUnits="userSpaceOnUse" id="color-2"><stop offset="0" stop-color="#000000"/><stop offset="1" stop-color="#860000"/></linearGradient></defs><g transform="translate(-214.46984,-187.44454)"><g data-paper-data="{&quot;isPaintingLayer&quot;:true}" fill="none" fill-rule="nonzero" stroke="#000000" stroke-width="none" stroke-linecap="butt" stroke-linejoin="miter" stroke-miterlimit="10" stroke-dasharray="" stroke-dashoffset="0" font-family="none" font-weight="none" font-size="none" text-anchor="none" style="mix-blend-mode: normal"><path d="M223.57715,206.81298l1.78722,-2.43966l14.30411,8.20279l-1.78722,2.43966z" data-paper-data="{&quot;origPos&quot;:null,&quot;origRot&quot;:0}" fill="url(#color-1)" stroke-width="1"/><path d="M241.86437,215.01575l-1.78722,-2.43966l14.30411,-8.20279l1.78722,2.43966z" data-paper-data="{&quot;origPos&quot;:null,&quot;origRot&quot;:0,&quot;index&quot;:null}" fill="#ff0000" stroke-width="1"/><path d="M237.49947,213.69455v-25.25h5v25.25z" data-paper-data="{&quot;origPos&quot;:null}" fill="#ff0000" stroke-width="2"/><path d="M215.17511,213.62086l7.87773,-9.10543l2.31494,2.00281l-7.87773,9.10543z" data-paper-data="{&quot;origPos&quot;:null,&quot;origRot&quot;:0}" fill="url(#color-2)" stroke-width="1"/><path d="M263.05284,215.87365l-7.87773,-9.10543l2.31494,-2.00281l7.87773,9.10543z" data-paper-data="{&quot;origPos&quot;:null,&quot;origRot&quot;:0,&quot;index&quot;:null}" fill="#ff0000" stroke-width="1"/><path d="M252.08801,210.67345l-3.02901,-4.98886l1.25719,-0.83045l3.02901,4.98886z" data-paper-data="{&quot;origPos&quot;:null,&quot;origRot&quot;:0}" fill="#2800ff" stroke-width="1"/><path d="M248.30429,213.00696l-3.02901,-4.98886l1.25719,-0.83045l3.02901,4.98886z" data-paper-data="{&quot;origPos&quot;:null,&quot;origRot&quot;:0}" fill="#2800ff" stroke-width="1"/><path d="M230.53006,211.84333l3.02901,-4.98886l1.25719,0.83045l-3.02901,4.98886z" data-paper-data="{&quot;origPos&quot;:null,&quot;origRot&quot;:0,&quot;index&quot;:null}" fill="#2800ff" stroke-width="1"/><path d="M226.85573,209.80748l3.02901,-4.98886l1.25719,0.83045l-3.02901,4.98886z" data-paper-data="{&quot;origPos&quot;:null,&quot;origRot&quot;:0,&quot;index&quot;:null}" fill="#2800ff" stroke-width="1"/></g></g></svg>