<svg version="1.1" xmlns="http://www.w3.org/2000/svg" xmlns:xlink="http://www.w3.org/1999/xlink" width="51.6032" height="29.13437" viewBox="0,0,51.6032,29.13437"><defs><linearGradient x1="231.62281" y1="204.37333" x2="231.62281" y2="215.01578" gradientUnits="userSpaceOnUse" id="color-1"><stop offset="0" stop-color="#ff0001"/><stop offset="1" stop-color="#000000"/></linearGradient><linearGradient x1="248.12281" y1="204.37331" x2="248.12281" y2="215.01576" gradientUnits="userSpaceOnUse" id="color-2"><stop offset="0" stop-color="#ff0000"/><stop offset="1" stop-color="#000000"/></linearGradient><linearGradient x1="239.99947" y1="188.44456" x2="239.99947" y2="213.69456" gradientUnits="userSpaceOnUse" id="color-3"><stop offset="0" stop-color="#ff0000"/><stop offset="1" stop-color="#000000"/></linearGradient><linearGradient x1="220.27144" y1="204.51544" x2="220.27144" y2="215.62368" gradientUnits="userSpaceOnUse" id="color-4"><stop offset="0" stop-color="#ff0000"/><stop offset="1" stop-color="#000000"/></linearGradient><linearGradient x1="260.27144" y1="204.76542" x2="260.27144" y2="215.87366" gradientUnits="userSpaceOnUse" id="color-5"><stop offset="0" stop-color="#ff0000"/><stop offset="1" stop-color="#000000"/></linearGradient><radialGradient cx="251.2021" cy="207.7638" r="2.90966" gradientUnits="userSpaceOnUse" id="color-6"><stop offset="0" stop-color="#2800ff"/><stop offset="1" stop-color="#000000"/></radialGradient><radialGradient cx="247.41838" cy="210.09731" r="2.90965" gradientUnits="userSpaceOnUse" id="color-7"><stop offset="0" stop-color="#2800ff"/><stop offset="1" stop-color="#000000"/></radialGradient><radialGradient cx="232.67316" cy="209.76413" r="2.90965" gradientUnits="userSpaceOnUse" id="color-8"><stop offset="0" stop-color="#2800ff"/><stop offset="1" stop-color="#000000"/></radialGradient><radialGradient cx="228.99883" cy="207.72828" r="2.90965" gradientUnits="userSpaceOnUse" id="color-9"><stop offset="0" stop-color="#2800ff"/><stop offset="1" stop-color="#000000"/></radialGradient></defs><g transform="translate(-214.46984,-187.44455)"><g data-paper-data="{&quot;isPaintingLayer&quot;:true}" fill="none" fill-rule="nonzero" stroke="#000000" stroke-width="none" stroke-linecap="butt" stroke-linejoin="miter" stroke-miterlimit="10" stroke-dasharray="" stroke-dashoffset="0" font-family="none" font-weight="none" font-size="none" text-anchor="none" style="mix-blend-mode: normal"><path d="M223.57715,206.81299l1.78722,-2.43966l14.30411,8.20279l-1.78722,2.43966z" data-paper-data="{&quot;origPos&quot;:null,&quot;origRot&quot;:0}" fill="url(#color-1)" stroke-width="1"/><path d="M241.86437,215.01576l-1.78722,-2.43966l14.30411,-8.20279l1.78722,2.43966z" data-paper-data="{&quot;origPos&quot;:null,&quot;origRot&quot;:0,&quot;index&quot;:null}" fill="url(#color-2)" stroke-width="1"/><path d="M237.49947,213.69456v-25.25h5v25.25z" data-paper-data="{&quot;origPos&quot;:null}" fill="url(#color-3)" stroke-width="2"/><path d="M215.17511,213.62087l7.87773,-9.10543l2.31494,2.00281l-7.87773,9.10543z" data-paper-data="{&quot;origPos&quot;:null,&quot;origRot&quot;:0}" fill="url(#color-4)" stroke-width="1"/><path d="M263.05284,215.87366l-7.87773,-9.10543l2.31494,-2.00281l7.87773,9.10543z" data-paper-data="{&quot;origPos&quot;:null,&quot;origRot&quot;:0,&quot;index&quot;:null}" fill="url(#color-5)" stroke-width="1"/><path d="M252.08801,210.67346l-3.02901,-4.98886l1.25719,-0.83045l3.02901,4.98886z" data-paper-data="{&quot;origPos&quot;:null,&quot;origRot&quot;:0}" fill="url(#color-6)" stroke-width="1"/><path d="M248.30429,213.00697l-3.02901,-4.98886l1.25719,-0.83045l3.02901,4.98886z" data-paper-data="{&quot;origPos&quot;:null,&quot;origRot&quot;:0}" fill="url(#color-7)" stroke-width="1"/><path d="M230.53006,211.84334l3.02901,-4.98886l1.25719,0.83045l-3.02901,4.98886z" data-paper-data="{&quot;origPos&quot;:null,&quot;origRot&quot;:0,&quot;index&quot;:null}" fill="url(#color-8)" stroke-width="1"/><path d="M226.85573,209.80749l3.02901,-4.98886l1.25719,0.83045l-3.02901,4.98886z" data-paper-data="{&quot;origPos&quot;:null,&quot;origRot&quot;:0,&quot;index&quot;:null}" fill="url(#color-9)" stroke-width="1"/></g></g></svg>