<svg version="1.1" xmlns="http://www.w3.org/2000/svg" xmlns:xlink="http://www.w3.org/1999/xlink" width="70.27611" height="48.99989" viewBox="0,0,70.27611,48.99989"><defs><radialGradient cx="261.35253" cy="188.22669" r="17.48125" gradientUnits="userSpaceOnUse" id="color-1"><stop offset="0" stop-color="#7733ff"/><stop offset="1" stop-color="#9966ff"/></radialGradient></defs><g transform="translate(-234.71908,-161.75541)"><g data-paper-data="{&quot;isPaintingLayer&quot;:true}" fill="none" fill-rule="nonzero" stroke="none" stroke-width="none" stroke-linecap="none" stroke-linejoin="miter" stroke-miterlimit="10" stroke-dasharray="" stroke-dashoffset="0" font-family="none" font-weight="none" font-size="none" text-anchor="none" style="mix-blend-mode: normal"><path d="M275.33805,188.20971l28.15714,0.78214" data-paper-data="{&quot;origPos&quot;:null}" fill="none" stroke="#000000" stroke-width="3" stroke-linecap="round"/><path d="M250.23507,209.42197v-9" data-paper-data="{&quot;origPos&quot;:null}" fill="none" stroke="#000000" stroke-width="2" stroke-linecap="round"/><path d="M264.56836,199.08863v10.33334" data-paper-data="{&quot;origPos&quot;:null}" fill="none" stroke="#000000" stroke-width="2" stroke-linecap="round"/><path d="M256.81041,172.42197c11.64842,0 21.09133,6.81471 21.09133,15.22109c0,8.40637 -9.44291,15.22109 -21.09133,15.22109c-11.64842,0 -21.09133,-6.81471 -21.09133,-15.22109c0,-8.40638 9.44291,-15.22109 21.09133,-15.22109z" data-paper-data="{&quot;origPos&quot;:null}" fill="#000000" stroke="#000000" stroke-width="2" stroke-linecap="butt"/><path d="M278.83378,188.09434c0,8.3855 -9.56433,15.18329 -21.36253,15.18329c-5.16703,0 -9.90561,-1.30383 -13.59997,-3.47383c0.34991,0.03704 0.7052,0.05604 1.06493,0.05604c0.85306,0 1.68118,-0.10682 2.4717,-0.3078c0.79052,0.20099 1.61864,0.3078 2.4717,0.3078c2.17275,0 4.18366,-0.69294 5.82378,-1.86988c1.78887,-0.56164 3.36117,-1.61241 4.56017,-2.99559c2.47296,-1.56978 4.20634,-4.29146 4.20634,-8.31243c0,-3.35927 -2.70659,-6.29542 -5,-8.75c-0.97192,-1.04021 -2.75139,-0.73718 -4.14332,-1.03583c-0.75317,-0.26576 -1.54772,-0.44387 -2.37137,-0.52207c-0.50292,-0.08349 -1.00808,-0.13129 -1.51603,-0.10751c-0.43583,0.02041 -0.84569,0.09723 -1.23326,0.22247c-0.0104,0.00188 -0.0208,0.00378 -0.03119,0.0057c0.44714,-0.39852 0.85825,-0.83658 1.22785,-1.30872c0.22726,-0.13336 0.44877,-0.27544 0.6641,-0.42578c0.15473,-0.01185 0.30848,-0.02723 0.46117,-0.04605c0.40495,0.04991 0.8174,0.07561 1.23585,0.07561c1.30784,0 2.55706,-0.25106 3.70206,-0.70763c1.4251,-0.0239 2.77763,-0.34591 3.99793,-0.90637c9.89008,1.32887 17.37009,7.50287 17.37009,14.91858z" data-paper-data="{&quot;origPos&quot;:null}" fill="url(#color-1)" stroke="#000000" stroke-width="2" stroke-linecap="butt"/><path d="M256.06836,184.42197c0,1.38071 -1.11929,2.5 -2.5,2.5c-0.53515,0 -1.03103,-0.16815 -1.43768,-0.45449c-0.10363,-0.03356 -0.2043,-0.07371 -0.30151,-0.11995c-0.16878,0.20409 -0.36936,0.38092 -0.59414,0.52292c-0.3859,0.24377 -0.84314,0.38485 -1.33333,0.38485c-0.11302,0 -0.22429,-0.0075 -0.33333,-0.02203c-0.10905,0.01453 -0.22031,0.02203 -0.33333,0.02203c-0.10781,0 -0.21402,-0.00682 -0.31824,-0.02006c-0.15028,0.20428 -0.33088,0.38488 -0.53516,0.53516c0.01324,0.10421 0.02006,0.21043 0.02006,0.31824c0,1.38071 -1.11929,2.5 -2.5,2.5c-1.32667,0 -2.41199,-1.03339 -2.49491,-2.33914c-0.05675,0.00385 -0.11403,0.00581 -0.17176,0.00581c-1.38071,0 -2.5,-1.11929 -2.5,-2.5c0,-1.21043 0.86023,-2.21995 2.0027,-2.45054c0.06121,-1.3263 1.15588,-2.3828 2.4973,-2.3828c0.19489,0 0.38458,0.0223 0.56664,0.06449c0.44505,-0.44451 1.05682,-0.72212 1.73343,-0.73094c0.44607,-0.41385 1.04345,-0.66688 1.69992,-0.66688c0.28995,0 0.56838,0.04936 0.82733,0.14014c0.45686,-0.49604 1.11181,-0.80681 1.83934,-0.80681c1.38071,0 2.5,1.11929 2.5,2.5c0,0.21113 -0.02617,0.41614 -0.07545,0.61197c0.00439,0.00305 0.00876,0.00611 0.01313,0.00918c1.00341,0.32498 1.72899,1.26718 1.72899,2.37885z" fill="#ff0000" stroke="none" stroke-width="0.5" stroke-linecap="butt"/><path d="M257.23501,173.08863l0.33334,-10l-22.33334,-0.33333l45.33334,0.66667" fill="none" stroke="#000000" stroke-width="2" stroke-linecap="round"/><path d="M268.17949,209.7553l-22.22222,-0.33333l-2.15724,-1.54071" data-paper-data="{&quot;origPos&quot;:null}" fill="none" stroke="#000000" stroke-width="2" stroke-linecap="round"/><path d="M242.80129,185.1446c0,-1.38071 1.11929,-2.5 2.5,-2.5c1.38071,0 2.5,1.11929 2.5,2.5c0,1.38071 -1.11929,2.5 -2.5,2.5c-1.38071,0 -2.5,-1.11929 -2.5,-2.5z" fill="#7733ff" stroke="none" stroke-width="0.5" stroke-linecap="butt"/><path d="M302.32196,175.89096l-0.39107,26.00625" fill="none" stroke="#000000" stroke-width="3" stroke-linecap="round"/><path d="M244.60463,176.40181l10.32304,12.58428" data-paper-data="{&quot;origPos&quot;:null}" fill="none" stroke="#000000" stroke-width="2" stroke-linecap="round"/><path d="M247.94721,178.05096c1.74036,-1.79475 3.53512,-0.05439 3.53512,-0.05439l-0.20555,-0.05686c2.88275,1.55225 4.52242,3.37184 6.3131,6.05787c0,0 1.38675,2.08013 -0.69338,3.46688c-2.08013,1.38675 -3.46688,-0.69338 -3.46688,-0.69338c-1.37093,-2.0564 -2.39992,-3.28563 -4.52335,-4.42902l-0.90468,-0.75599c0,0 -1.79475,-1.74036 -0.05439,-3.53512z" fill="#000000" stroke="none" stroke-width="0.5" stroke-linecap="butt"/><path d="M242.7507,193.24951l11.72065,-9.61299" data-paper-data="{&quot;origPos&quot;:null}" fill="none" stroke="#000000" stroke-width="2" stroke-linecap="round"/><path d="M246.77068,192.89994l-7.34083,-8.03995l8.06867,-6.29214" fill="none" stroke="#000000" stroke-width="2" stroke-linecap="round"/><path d="" data-paper-data="{&quot;origPos&quot;:null}" fill="none" stroke="#9966ff" stroke-width="2" stroke-linecap="round"/><path d="M255.1889,175.15961c0,-0.04826 1.60417,-0.08739 3.58302,-0.08739c1.97885,0 3.58302,0.03913 3.58302,0.08739c0,0.04826 -1.60417,0.08739 -3.58302,0.08739c-1.97885,0 -3.58302,-0.03913 -3.58302,-0.08739z" fill="none" stroke="#9966ff" stroke-width="2" stroke-linecap="butt"/><path d="M255.1889,175.15962c0,-0.04826 1.60417,-0.08739 3.58302,-0.08739c1.97885,0 3.58302,0.03913 3.58302,0.08739c0,0.04826 -1.60417,0.08739 -3.58302,0.08739c-1.97885,0 -3.58302,-0.03913 -3.58302,-0.08739z" data-paper-data="{&quot;origPos&quot;:null}" fill="none" stroke="#915aff" stroke-width="2" stroke-linecap="butt"/></g></g></svg>