<svg version="1.1" xmlns="http://www.w3.org/2000/svg" xmlns:xlink="http://www.w3.org/1999/xlink" width="95.89375" height="88.52571"><g transform="translate(-203.42188,-128.98438)"><g data-paper-data="{&quot;isPaintingLayer&quot;:true}" fill="none" fill-rule="nonzero" stroke="none" stroke-width="none" stroke-linecap="butt" stroke-linejoin="miter" stroke-miterlimit="10" stroke-dasharray="" stroke-dashoffset="0" font-family="none" font-weight="none" font-size="none" text-anchor="none" style="mix-blend-mode: normal"><path d="M204.42188,214.98438v-85h93.89375v85z" data-paper-data="{&quot;origPos&quot;:null}" fill="#ff00c3" stroke="#000000" stroke-width="2"/><text transform="translate(213.8996,211.26009) scale(0.5,0.5)" font-size="40" xml:space="preserve" data-paper-data="{&quot;origPos&quot;:null}" fill="#ffffff" fill-rule="nonzero" stroke="none" stroke-width="1" stroke-linecap="butt" stroke-linejoin="miter" stroke-miterlimit="10" stroke-dasharray="" stroke-dashoffset="0" font-family="Sans Serif" font-weight="normal" text-anchor="start" style="mix-blend-mode: normal"><tspan x="0" dy="0">30 Euro</tspan></text><path d="M208.21274,136.94821l3.22217,-4.07509l21.48684,16.98959l-3.22217,4.07509z" data-paper-data="{&quot;origRot&quot;:0,&quot;origPos&quot;:null}" fill="#ff0000" stroke="#000000" stroke-width="1"/><path d="M258.68486,182.35126v-18.7446h26.65898v18.7446z" data-paper-data="{&quot;origPos&quot;:null}" fill="#ff0000" stroke="#000000" stroke-width="1"/><path d="M269.92802,166.73884c0,14.60832 -11.93563,26.45071 -26.65898,26.45071c-14.72336,0 -26.65898,-11.84239 -26.65898,-26.45071c0,-14.60832 11.93563,-26.45071 26.65898,-26.45071c14.72336,0 26.65898,11.84239 26.65898,26.45071z" data-paper-data="{&quot;origPos&quot;:null}" fill="#ff0000" stroke="#000000" stroke-width="2"/><path d="M252.84961,160.69892c0,-2.30052 1.86495,-4.16547 4.16547,-4.16547c2.30052,0 4.16547,1.86495 4.16547,4.16547c0,2.30052 -1.86495,4.16547 -4.16547,4.16547c-2.30052,0 -4.16547,-1.86495 -4.16547,-4.16547z" data-paper-data="{&quot;origPos&quot;:null}" fill="#000000" stroke="none" stroke-width="0.5"/><path d="M290.96722,163.60666c1.95545,0 3.54065,4.19612 3.54065,9.3723c0,5.17617 -1.58519,9.3723 -3.54065,9.3723c-1.95545,0 -3.54065,-4.19612 -3.54065,-9.3723c0,-5.17617 1.58519,-9.3723 3.54065,-9.3723z" data-paper-data="{&quot;origPos&quot;:null}" fill="#ff0000" stroke="#000000" stroke-width="1"/><path d="M287.2183,166.10594c2.6456,0 4.79029,2.98391 4.79029,6.66475c0,3.68084 -2.14468,6.66475 -4.79029,6.66475c-2.6456,0 -4.79029,-2.98391 -4.79029,-6.66475c0,-3.68084 2.14468,-6.66475 4.79029,-6.66475z" data-paper-data="{&quot;origPos&quot;:null}" fill="#ff0000" stroke="#000000" stroke-width="1"/><path d="M286.59348,167.35558c4.37099,0 7.91439,2.42442 7.91439,5.41511c0,2.99069 -3.5434,5.41511 -7.91439,5.41511c-4.37099,0 -7.91439,-2.42442 -7.91439,-5.41511c0,-2.99069 3.5434,-5.41511 7.91439,-5.41511z" data-paper-data="{&quot;origPos&quot;:null}" fill="#ff0000" stroke="#000000" stroke-width="0"/></g></g></svg>