<svg version="1.1" xmlns="http://www.w3.org/2000/svg" xmlns:xlink="http://www.w3.org/1999/xlink" width="53.71761" height="39.31041" viewBox="0,0,53.71761,39.31041"><defs><linearGradient x1="218.95961" y1="165.57298" x2="233.78929" y2="165.57298" gradientUnits="userSpaceOnUse" id="color-1"><stop offset="0" stop-color="#000201"/><stop offset="1" stop-color="#ff0000"/></linearGradient><linearGradient x1="223.99945" y1="179.57705" x2="255.99945" y2="179.57705" gradientUnits="userSpaceOnUse" id="color-2"><stop offset="0" stop-color="#001718"/><stop offset="1" stop-color="#ff0000"/></linearGradient></defs><g transform="translate(-217.53399,-157.14164)"><g data-paper-data="{&quot;isPaintingLayer&quot;:true}" fill="none" fill-rule="nonzero" stroke="#000000" stroke-width="none" stroke-linecap="butt" stroke-linejoin="miter" stroke-miterlimit="10" stroke-dasharray="" stroke-dashoffset="0" font-family="none" font-weight="none" font-size="none" text-anchor="none" style="mix-blend-mode: normal"><path d="M218.95961,161.69752l1.93386,-2.44576c0,0 -1.23544,5.04923 -0.16153,5.89837c0.98854,0.78163 3.77219,-2.83495 4.93939,-2.35979c3.50161,1.42549 8.11796,6.65811 8.11796,6.65811l-1.93386,2.44576c0,0 -3.52396,-4.10186 -6.90476,-5.26232c-1.89619,-0.65086 -4.99634,1.97233 -6.56893,0.7289c-1.03776,-0.82056 0.57787,-5.66326 0.57787,-5.66326z" data-paper-data="{&quot;origRot&quot;:0,&quot;origPos&quot;:null}" fill="url(#color-1)" stroke-width="1"/><path d="M249.25161,188.9472v-11.25h16v11.25z" data-paper-data="{&quot;origPos&quot;:null}" fill="#ff0000" stroke-width="1"/><path d="M253.80209,188.81517v-11.12263h4.62865v11.12263z" data-paper-data="{&quot;origPos&quot;:null}" fill="#2800ff" stroke-width="1"/><path d="M255.99945,179.57705c0,8.76752 -7.16344,15.875 -16,15.875c-8.83656,0 -16,-7.10748 -16,-15.875c0,-8.76752 7.16344,-15.875 16,-15.875c8.83656,0 16,7.10748 16,15.875z" data-paper-data="{&quot;origPos&quot;:null}" fill="url(#color-2)" stroke-width="2"/><path d="M245.7798,175.03981c0.13457,-0.8558 1.34936,-1.3757 2.71331,-1.16123c1.36395,0.21447 2.36056,1.0821 2.22599,1.93791c-0.13457,0.8558 -1.34936,1.3757 -2.71331,1.16123c-1.36395,-0.21447 -2.36056,-1.0821 -2.22599,-1.93791z" data-paper-data="{&quot;origPos&quot;:null,&quot;origRot&quot;:0}" fill="#00ff8e" stroke-width="1"/><path d="M268.62661,177.6972c1.17361,0 2.125,2.5184 2.125,5.625c0,3.1066 -0.95139,5.625 -2.125,5.625c-1.17361,0 -2.125,-2.5184 -2.125,-5.625c0,-3.1066 0.95139,-5.625 2.125,-5.625z" data-paper-data="{&quot;origPos&quot;:null}" fill="#ff0000" stroke-width="1"/><path d="M266.37661,179.1972c1.58782,0 2.875,1.79086 2.875,4c0,2.20914 -1.28718,4 -2.875,4c-1.58782,0 -2.875,-1.79086 -2.875,-4c0,-2.20914 1.28718,-4 2.875,-4z" data-paper-data="{&quot;origPos&quot;:null}" fill="#ff0000" stroke-width="1"/><path d="M266.00161,179.9472c2.62335,0 4.75,1.45507 4.75,3.25c0,1.79493 -2.12665,3.25 -4.75,3.25c-2.62335,0 -4.75,-1.45507 -4.75,-3.25c0,-1.79493 2.12665,-3.25 4.75,-3.25z" data-paper-data="{&quot;origPos&quot;:null}" fill="#ff0000" stroke-width="0"/><path d="M260.80751,188.85864v-11.06418h2.89921v11.06418z" data-paper-data="{&quot;origPos&quot;:null}" fill="#2800ff" stroke-width="1"/></g></g></svg>