<svg version="1.1" xmlns="http://www.w3.org/2000/svg" xmlns:xlink="http://www.w3.org/1999/xlink" width="53.24909" height="37.82301" viewBox="0,0,53.24909,37.82301"><defs><linearGradient x1="218.95962" y1="165.57298" x2="233.7893" y2="165.57298" gradientUnits="userSpaceOnUse" id="color-1"><stop offset="0" stop-color="#000201"/><stop offset="1" stop-color="#ff0000"/></linearGradient><linearGradient x1="223.99946" y1="179.57706" x2="255.99946" y2="179.57706" gradientUnits="userSpaceOnUse" id="color-2"><stop offset="0" stop-color="#001718"/><stop offset="1" stop-color="#ff0000"/></linearGradient></defs><g transform="translate(-218.00252,-158.62904)"><g data-paper-data="{&quot;isPaintingLayer&quot;:true}" fill="none" fill-rule="nonzero" stroke="#000000" stroke-width="none" stroke-linecap="butt" stroke-linejoin="miter" stroke-miterlimit="10" stroke-dasharray="" stroke-dashoffset="0" font-family="none" font-weight="none" font-size="none" text-anchor="none" style="mix-blend-mode: normal"><path d="M218.95962,161.69753l1.93386,-2.44576c0,0 1.94844,0.9271 3.09195,1.83127c3.43052,2.71251 9.80387,8.36542 9.80387,8.36542l-1.93386,2.44576c0,0 -6.11774,-6.03798 -9.82622,-8.97027c-1.32428,-1.0471 -3.0696,-1.22642 -3.0696,-1.22642z" data-paper-data="{&quot;origRot&quot;:0,&quot;origPos&quot;:null,&quot;index&quot;:null}" fill="url(#color-1)" stroke-width="1"/><path d="M249.25162,188.94721v-11.25h16v11.25z" data-paper-data="{&quot;origPos&quot;:null}" fill="#ff0000" stroke-width="1"/><path d="M253.8021,188.81518v-11.12263h4.62865v11.12263z" data-paper-data="{&quot;origPos&quot;:null}" fill="#2800ff" stroke-width="1"/><path d="M255.99946,179.57706c0,8.76752 -7.16344,15.875 -16,15.875c-8.83656,0 -16,-7.10748 -16,-15.875c0,-8.76752 7.16344,-15.875 16,-15.875c8.83656,0 16,7.10748 16,15.875z" data-paper-data="{&quot;origPos&quot;:null}" fill="url(#color-2)" stroke-width="2"/><path d="M245.77981,175.03982c0.13457,-0.8558 1.34936,-1.3757 2.71331,-1.16123c1.36395,0.21447 2.36056,1.0821 2.22599,1.93791c-0.13457,0.8558 -1.34936,1.3757 -2.71331,1.16123c-1.36395,-0.21447 -2.36056,-1.0821 -2.22599,-1.93791z" data-paper-data="{&quot;origPos&quot;:null,&quot;origRot&quot;:0}" fill="#00ff8e" stroke-width="1"/><path d="M268.62662,177.69721c1.17361,0 2.125,2.5184 2.125,5.625c0,3.1066 -0.95139,5.625 -2.125,5.625c-1.17361,0 -2.125,-2.5184 -2.125,-5.625c0,-3.1066 0.95139,-5.625 2.125,-5.625z" data-paper-data="{&quot;origPos&quot;:null}" fill="#ff0000" stroke-width="1"/><path d="M266.37662,179.19721c1.58782,0 2.875,1.79086 2.875,4c0,2.20914 -1.28718,4 -2.875,4c-1.58782,0 -2.875,-1.79086 -2.875,-4c0,-2.20914 1.28718,-4 2.875,-4z" data-paper-data="{&quot;origPos&quot;:null}" fill="#ff0000" stroke-width="1"/><path d="M266.00162,179.94721c2.62335,0 4.75,1.45507 4.75,3.25c0,1.79493 -2.12665,3.25 -4.75,3.25c-2.62335,0 -4.75,-1.45507 -4.75,-3.25c0,-1.79493 2.12665,-3.25 4.75,-3.25z" data-paper-data="{&quot;origPos&quot;:null}" fill="#ff0000" stroke-width="0"/><path d="M260.80752,188.85865v-11.06418h2.89921v11.06418z" data-paper-data="{&quot;origPos&quot;:null}" fill="#2800ff" stroke-width="1"/></g></g></svg>