<svg version="1.1" xmlns="http://www.w3.org/2000/svg" xmlns:xlink="http://www.w3.org/1999/xlink" width="52.99433" height="37.90262" viewBox="0,0,52.99433,37.90262"><defs><linearGradient x1="218.95961" y1="165.57298" x2="233.78929" y2="165.57298" gradientUnits="userSpaceOnUse" id="color-1"><stop offset="0" stop-color="#000000"/><stop offset="1" stop-color="#ff0000"/></linearGradient></defs><g transform="translate(-218.25729,-158.54944)"><g data-paper-data="{&quot;isPaintingLayer&quot;:true}" fill="none" fill-rule="nonzero" stroke="none" stroke-width="none" stroke-linecap="butt" stroke-linejoin="miter" stroke-miterlimit="10" stroke-dasharray="" stroke-dashoffset="0" font-family="none" font-weight="none" font-size="none" text-anchor="none" style="mix-blend-mode: normal"><path d="M218.95961,161.69752l1.93386,-2.44576l12.89582,10.19669l-1.93386,2.44576z" data-paper-data="{&quot;origRot&quot;:0,&quot;origPos&quot;:null}" fill="url(#color-1)" stroke="#000000" stroke-width="1"/><path d="M249.25161,188.9472v-11.25h16v11.25z" data-paper-data="{&quot;origPos&quot;:null}" fill="#ff0000" stroke="#000000" stroke-width="1"/><path d="M253.80209,188.81517v-11.12263h4.62865v11.12263z" data-paper-data="{&quot;origPos&quot;:null}" fill="#2800ff" stroke="#000000" stroke-width="1"/><path d="M255.99945,179.57705c0,8.76752 -7.16344,15.875 -16,15.875c-8.83656,0 -16,-7.10748 -16,-15.875c0,-8.76752 7.16344,-15.875 16,-15.875c8.83656,0 16,7.10748 16,15.875z" data-paper-data="{&quot;origPos&quot;:null}" fill="#ff0000" stroke="#000000" stroke-width="2"/><path d="M245.74945,175.95205c0,-1.38071 1.11929,-2.5 2.5,-2.5c1.38071,0 2.5,1.11929 2.5,2.5c0,1.38071 -1.11929,2.5 -2.5,2.5c-1.38071,0 -2.5,-1.11929 -2.5,-2.5z" data-paper-data="{&quot;origPos&quot;:null}" fill="#000000" stroke="none" stroke-width="0.5"/><path d="M268.62661,177.6972c1.17361,0 2.125,2.5184 2.125,5.625c0,3.1066 -0.95139,5.625 -2.125,5.625c-1.17361,0 -2.125,-2.5184 -2.125,-5.625c0,-3.1066 0.95139,-5.625 2.125,-5.625z" data-paper-data="{&quot;origPos&quot;:null}" fill="#ff0000" stroke="#000000" stroke-width="1"/><path d="M266.37661,179.1972c1.58782,0 2.875,1.79086 2.875,4c0,2.20914 -1.28718,4 -2.875,4c-1.58782,0 -2.875,-1.79086 -2.875,-4c0,-2.20914 1.28718,-4 2.875,-4z" data-paper-data="{&quot;origPos&quot;:null}" fill="#ff0000" stroke="#000000" stroke-width="1"/><path d="M266.00161,179.9472c2.62335,0 4.75,1.45507 4.75,3.25c0,1.79493 -2.12665,3.25 -4.75,3.25c-2.62335,0 -4.75,-1.45507 -4.75,-3.25c0,-1.79493 2.12665,-3.25 4.75,-3.25z" data-paper-data="{&quot;origPos&quot;:null}" fill="#ff0000" stroke="#000000" stroke-width="0"/><path d="M260.80751,188.85864v-11.06418h2.89921v11.06418z" data-paper-data="{&quot;origPos&quot;:null}" fill="#2800ff" stroke="#000000" stroke-width="1"/></g></g></svg>