<svg version="1.1" xmlns="http://www.w3.org/2000/svg" xmlns:xlink="http://www.w3.org/1999/xlink" width="52.74379" height="37.90262" viewBox="0,0,52.74379,37.90262"><defs><linearGradient x1="218.95962" y1="165.32245" x2="233.7893" y2="165.32245" gradientUnits="userSpaceOnUse" id="color-1"><stop offset="0" stop-color="#5dd100"/><stop offset="1" stop-color="#ff0000"/></linearGradient><linearGradient x1="223.99946" y1="179.32652" x2="255.99946" y2="179.32652" gradientUnits="userSpaceOnUse" id="color-2"><stop offset="0" stop-color="#d14a00"/><stop offset="1" stop-color="#5dd100"/></linearGradient></defs><g transform="translate(-218.25729,-158.2989)"><g data-paper-data="{&quot;isPaintingLayer&quot;:true}" fill="none" fill-rule="nonzero" stroke="none" stroke-width="none" stroke-linecap="butt" stroke-linejoin="miter" stroke-miterlimit="10" stroke-dasharray="" stroke-dashoffset="0" font-family="none" font-weight="none" font-size="none" text-anchor="none" style="mix-blend-mode: normal"><path d="M218.95962,161.44699l1.93386,-2.44576l12.89582,10.19669l-1.93386,2.44576z" data-paper-data="{&quot;origRot&quot;:0,&quot;origPos&quot;:null}" fill="url(#color-1)" stroke="#000000" stroke-width="1"/><path d="M249.00108,188.94721v-11.25h16v11.25z" data-paper-data="{&quot;origPos&quot;:null}" fill="#5dd100" stroke="#000000" stroke-width="1"/><path d="M253.80208,188.93101v-11.2385h4.62865v11.2385z" data-paper-data="{&quot;origPos&quot;:null}" fill="#ff00cd" stroke="#000000" stroke-width="1"/><path d="M255.99946,179.32652c0,8.76752 -7.16344,15.875 -16,15.875c-8.83656,0 -16,-7.10748 -16,-15.875c0,-8.76752 7.16344,-15.875 16,-15.875c8.83656,0 16,7.10748 16,15.875z" data-paper-data="{&quot;origPos&quot;:null}" fill="url(#color-2)" stroke="#000000" stroke-width="2"/><path d="M245.74946,175.70152c0,-1.38071 1.11929,-2.5 2.5,-2.5c1.38071,0 2.5,1.11929 2.5,2.5c0,1.38071 -1.11929,2.5 -2.5,2.5c-1.38071,0 -2.5,-1.11929 -2.5,-2.5z" data-paper-data="{&quot;origPos&quot;:null}" fill="#000000" stroke="none" stroke-width="0.5"/><path d="M268.37608,177.69721c1.17361,0 2.125,2.5184 2.125,5.625c0,3.1066 -0.95139,5.625 -2.125,5.625c-1.17361,0 -2.125,-2.5184 -2.125,-5.625c0,-3.1066 0.95139,-5.625 2.125,-5.625z" data-paper-data="{&quot;origPos&quot;:null}" fill="#5dd100" stroke="#000000" stroke-width="1"/><path d="M266.12608,179.19721c1.58782,0 2.875,1.79086 2.875,4c0,2.20914 -1.28718,4 -2.875,4c-1.58782,0 -2.875,-1.79086 -2.875,-4c0,-2.20914 1.28718,-4 2.875,-4z" data-paper-data="{&quot;origPos&quot;:null}" fill="#5dd100" stroke="#000000" stroke-width="1"/><path d="M265.75108,179.94721c2.62335,0 4.75,1.45507 4.75,3.25c0,1.79493 -2.12665,3.25 -4.75,3.25c-2.62335,0 -4.75,-1.45507 -4.75,-3.25c0,-1.79493 2.12665,-3.25 4.75,-3.25z" data-paper-data="{&quot;origPos&quot;:null}" fill="#5dd100" stroke="#000000" stroke-width="0"/><path d="M260.8075,188.85863v-11.06418h2.89921v11.06418z" data-paper-data="{&quot;origPos&quot;:null}" fill="#2800ff" stroke="#000000" stroke-width="1"/></g></g></svg>