<svg version="1.1" xmlns="http://www.w3.org/2000/svg" xmlns:xlink="http://www.w3.org/1999/xlink" width="95.89375" height="89.09133"><g transform="translate(-203.42188,-128.98438)"><g data-paper-data="{&quot;isPaintingLayer&quot;:true}" fill="none" fill-rule="nonzero" stroke="none" stroke-width="none" stroke-linecap="butt" stroke-linejoin="miter" stroke-miterlimit="10" stroke-dasharray="" stroke-dashoffset="0" font-family="none" font-weight="none" font-size="none" text-anchor="none" style="mix-blend-mode: normal"><path d="M204.42188,214.98438v-85h93.89375v85z" data-paper-data="{&quot;origPos&quot;:null}" fill="#ff0000" stroke="#000000" stroke-width="2"/><path d="M207.71126,137.37581l3.18332,-4.02596l21.22777,16.78474l-3.18332,4.02596z" data-paper-data="{&quot;origRot&quot;:0,&quot;origPos&quot;:null}" fill="#ffe900" stroke="#000000" stroke-width="1"/><path d="M256.39606,182.17601v-18.51859h26.33755v18.51859z" data-paper-data="{&quot;origPos&quot;:null}" fill="#ffe900" stroke="#000000" stroke-width="1"/><path d="M268.68242,166.80727c0,14.43219 -11.79172,26.13179 -26.33755,26.13179c-14.54584,0 -26.33755,-11.6996 -26.33755,-26.13179c0,-14.43219 11.79172,-26.13179 26.33755,-26.13179c14.54584,0 26.33755,11.6996 26.33755,26.13179z" data-paper-data="{&quot;origPos&quot;:null}" fill="#ffe900" stroke="#000000" stroke-width="2"/><path d="M251.80993,160.84016c0,-2.27278 1.84246,-4.11524 4.11524,-4.11524c2.27278,0 4.11524,1.84246 4.11524,4.11524c0,2.27278 -1.84246,4.11524 -4.11524,4.11524c-2.27278,0 -4.11524,-1.84246 -4.11524,-4.11524z" data-paper-data="{&quot;origPos&quot;:null}" fill="#000000" stroke="none" stroke-width="0.5"/><path d="M288.2892,163.65742c1.93188,0 3.49796,4.14553 3.49796,9.2593c0,5.11377 -1.56608,9.2593 -3.49796,9.2593c-1.93188,0 -3.49796,-4.14553 -3.49796,-9.2593c0,-5.11377 1.56608,-9.2593 3.49796,-9.2593z" data-paper-data="{&quot;origPos&quot;:null}" fill="#ffe900" stroke="#000000" stroke-width="1"/><path d="M284.58547,166.12657c2.61371,0 4.73253,2.94793 4.73253,6.58439c0,3.63646 -2.11882,6.58439 -4.73253,6.58439c-2.61371,0 -4.73253,-2.94793 -4.73253,-6.58439c0,-3.63646 2.11882,-6.58439 4.73253,-6.58439z" data-paper-data="{&quot;origPos&quot;:null}" fill="#ffe900" stroke="#000000" stroke-width="1"/><path d="M283.96819,167.36116c4.31829,0 7.81896,2.39519 7.81896,5.34982c0,2.95463 -3.50067,5.34982 -7.81896,5.34982c-4.31829,0 -7.81896,-2.39519 -7.81896,-5.34982c0,-2.95463 3.50067,-5.34982 7.81896,-5.34982z" data-paper-data="{&quot;origPos&quot;:null}" fill="#ffe900" stroke="#000000" stroke-width="0"/><text transform="translate(213.8996,211.82571) scale(0.5,0.5)" font-size="40" xml:space="preserve" data-paper-data="{&quot;origPos&quot;:null}" fill="#ffffff" fill-rule="nonzero" stroke="none" stroke-width="1" stroke-linecap="butt" stroke-linejoin="miter" stroke-miterlimit="10" stroke-dasharray="" stroke-dashoffset="0" font-family="Sans Serif" font-weight="normal" text-anchor="start" style="mix-blend-mode: normal"><tspan x="0" dy="0">15 Euro</tspan></text></g></g></svg>