<svg version="1.1" xmlns="http://www.w3.org/2000/svg" xmlns:xlink="http://www.w3.org/1999/xlink" width="51.6032" height="29.13437" viewBox="0,0,51.6032,29.13437"><defs><linearGradient x1="231.62282" y1="204.37332" x2="231.62282" y2="215.01577" gradientUnits="userSpaceOnUse" id="color-1"><stop offset="0" stop-color="#5dd100"/><stop offset="1" stop-color="#d14a00"/></linearGradient><linearGradient x1="248.12281" y1="204.37329" x2="248.12281" y2="215.01574" gradientUnits="userSpaceOnUse" id="color-2"><stop offset="0" stop-color="#5dd100"/><stop offset="1" stop-color="#d14a00"/></linearGradient><linearGradient x1="239.99947" y1="188.44454" x2="239.99947" y2="213.69454" gradientUnits="userSpaceOnUse" id="color-3"><stop offset="0" stop-color="#5dd100"/><stop offset="1" stop-color="#d14a00"/></linearGradient><linearGradient x1="220.27145" y1="204.51542" x2="220.27145" y2="215.62367" gradientUnits="userSpaceOnUse" id="color-4"><stop offset="0" stop-color="#5dd100"/><stop offset="1" stop-color="#d14a00"/></linearGradient><linearGradient x1="260.27144" y1="204.7654" x2="260.27144" y2="215.87364" gradientUnits="userSpaceOnUse" id="color-5"><stop offset="0" stop-color="#5dd100"/><stop offset="1" stop-color="#d14a00"/></linearGradient></defs><g transform="translate(-214.46984,-187.44453)"><g data-paper-data="{&quot;isPaintingLayer&quot;:true}" fill="none" fill-rule="nonzero" stroke="#000000" stroke-width="none" stroke-linecap="butt" stroke-linejoin="miter" stroke-miterlimit="10" stroke-dasharray="" stroke-dashoffset="0" font-family="none" font-weight="none" font-size="none" text-anchor="none" style="mix-blend-mode: normal"><path d="M223.57715,206.81298l1.78722,-2.43966l14.30411,8.20279l-1.78722,2.43966z" data-paper-data="{&quot;origPos&quot;:null,&quot;origRot&quot;:0,&quot;index&quot;:null}" fill="url(#color-1)" stroke-width="1"/><path d="M241.86437,215.01574l-1.78722,-2.43966l14.30411,-8.20279l1.78722,2.43966z" data-paper-data="{&quot;origPos&quot;:null,&quot;origRot&quot;:0,&quot;index&quot;:null}" fill="url(#color-2)" stroke-width="1"/><path d="M237.49947,213.69454v-25.25h5v25.25z" data-paper-data="{&quot;origPos&quot;:null,&quot;index&quot;:null}" fill="url(#color-3)" stroke-width="2"/><path d="M215.17511,213.62085l7.87773,-9.10543l2.31494,2.00281l-7.87773,9.10543z" data-paper-data="{&quot;origPos&quot;:null,&quot;origRot&quot;:0,&quot;index&quot;:null}" fill="url(#color-4)" stroke-width="1"/><path d="M263.05284,215.87364l-7.87773,-9.10543l2.31494,-2.00281l7.87773,9.10543z" data-paper-data="{&quot;origPos&quot;:null,&quot;origRot&quot;:0,&quot;index&quot;:null}" fill="url(#color-5)" stroke-width="1"/><path d="M252.08801,210.6735l-3.02901,-4.98886l1.25719,-0.83045l3.02901,4.98886z" data-paper-data="{&quot;origPos&quot;:null,&quot;origRot&quot;:0}" fill="#2800ff" stroke-width="1"/><path d="M247.76479,213.00701l-3.02901,-4.98886l1.25719,-0.83045l3.02901,4.98886z" data-paper-data="{&quot;origPos&quot;:null,&quot;origRot&quot;:0}" fill="#2800ff" stroke-width="1"/><path d="M230.75238,212.72244l3.02901,-4.98886l1.25719,0.83045l-3.02901,4.98886z" data-paper-data="{&quot;origPos&quot;:null,&quot;origRot&quot;:0,&quot;index&quot;:null}" fill="#2800ff" stroke-width="1"/><path d="M226.60987,210.07438l3.02901,-4.98886l1.25719,0.83045l-3.02901,4.98886z" data-paper-data="{&quot;origPos&quot;:null,&quot;origRot&quot;:0,&quot;index&quot;:null}" fill="#2800ff" stroke-width="1"/></g></g></svg>