<svg version="1.1" xmlns="http://www.w3.org/2000/svg" xmlns:xlink="http://www.w3.org/1999/xlink" width="51.6032" height="29.13438" viewBox="0,0,51.6032,29.13438"><defs><linearGradient x1="231.62281" y1="204.37332" x2="231.62281" y2="215.01577" gradientUnits="userSpaceOnUse" id="color-1"><stop offset="0" stop-color="#ffe900"/><stop offset="1" stop-color="#ff1fc5"/></linearGradient><linearGradient x1="220.27144" y1="204.51543" x2="220.27144" y2="215.62367" gradientUnits="userSpaceOnUse" id="color-2"><stop offset="0" stop-color="#ffb600"/><stop offset="1" stop-color="#ff00ec"/></linearGradient></defs><g transform="translate(-214.46984,-187.44454)"><g data-paper-data="{&quot;isPaintingLayer&quot;:true}" fill="none" fill-rule="nonzero" stroke="#000000" stroke-width="none" stroke-linecap="butt" stroke-linejoin="miter" stroke-miterlimit="10" stroke-dasharray="" stroke-dashoffset="0" font-family="none" font-weight="none" font-size="none" text-anchor="none" style="mix-blend-mode: normal"><path d="M223.57715,206.81298l1.78722,-2.43966l14.30411,8.20279l-1.78722,2.43966z" data-paper-data="{&quot;origPos&quot;:null,&quot;origRot&quot;:0}" fill="url(#color-1)" stroke-width="1"/><path d="M241.86437,215.01576l-1.78722,-2.43966l14.30411,-8.20279l1.78722,2.43966z" data-paper-data="{&quot;origPos&quot;:null,&quot;origRot&quot;:0,&quot;index&quot;:null}" fill="#ffe900" stroke-width="1"/><path d="M237.49947,213.69455v-25.25h5v25.25z" data-paper-data="{&quot;origPos&quot;:null}" fill="#ffe900" stroke-width="2"/><path d="M215.17511,213.62086l7.87773,-9.10543l2.31494,2.00281l-7.87773,9.10543z" data-paper-data="{&quot;origPos&quot;:null,&quot;origRot&quot;:0}" fill="url(#color-2)" stroke-width="1"/><path d="M263.05284,215.87366l-7.87773,-9.10543l2.31494,-2.00281l7.87773,9.10543z" data-paper-data="{&quot;origPos&quot;:null,&quot;origRot&quot;:0,&quot;index&quot;:null}" fill="#ffe900" stroke-width="1"/><path d="M248.32374,212.8277l-3.02901,-4.98885l1.25718,-0.83045l3.02901,4.98886z" data-paper-data="{&quot;origPos&quot;:null,&quot;origRot&quot;:0}" fill="#2800ff" stroke-width="1"/><path d="M252.088,210.67343l-3.02901,-4.98886l1.25719,-0.83045l3.02901,4.98886z" data-paper-data="{&quot;origPos&quot;:null,&quot;origRot&quot;:0}" fill="#2800ff" stroke-width="1"/><path d="M230.64502,212.43655l3.02901,-4.98886l1.25718,0.83045l-3.02901,4.98886z" data-paper-data="{&quot;origPos&quot;:null,&quot;origRot&quot;:0,&quot;index&quot;:null}" fill="#2800ff" stroke-width="1"/><path d="M226.34447,209.89204l3.02901,-4.98886l1.25718,0.83045l-3.02901,4.98886z" data-paper-data="{&quot;origPos&quot;:null,&quot;origRot&quot;:0,&quot;index&quot;:null}" fill="#2800ff" stroke-width="1"/></g></g></svg>