<svg version="1.1" xmlns="http://www.w3.org/2000/svg" xmlns:xlink="http://www.w3.org/1999/xlink" width="51.6032" height="28.98438" viewBox="0,0,51.6032,28.98438"><defs><linearGradient x1="248.2228" y1="204.37336" x2="248.2228" y2="215.01581" gradientUnits="userSpaceOnUse" id="color-1"><stop offset="0" stop-color="#ffe900"/><stop offset="1" stop-color="#ff1fc5"/></linearGradient><linearGradient x1="231.5228" y1="204.37337" x2="231.5228" y2="215.01582" gradientUnits="userSpaceOnUse" id="color-2"><stop offset="0" stop-color="#ffe900"/><stop offset="1" stop-color="#ff1fc5"/></linearGradient><linearGradient x1="239.99946" y1="188.4446" x2="239.99946" y2="213.6946" gradientUnits="userSpaceOnUse" id="color-3"><stop offset="0" stop-color="#ffe900"/><stop offset="1" stop-color="#ff26ba"/></linearGradient><linearGradient x1="220.27143" y1="204.51548" x2="220.27143" y2="215.62372" gradientUnits="userSpaceOnUse" id="color-4"><stop offset="0" stop-color="#ffb600"/><stop offset="1" stop-color="#ff00ec"/></linearGradient><linearGradient x1="260.27144" y1="204.61547" x2="260.27144" y2="215.72371" gradientUnits="userSpaceOnUse" id="color-5"><stop offset="0" stop-color="#ffb600"/><stop offset="1" stop-color="#ff00ec"/></linearGradient></defs><g transform="translate(-214.46983,-187.4446)"><g data-paper-data="{&quot;isPaintingLayer&quot;:true}" fill="none" fill-rule="nonzero" stroke="#000000" stroke-width="none" stroke-linecap="butt" stroke-linejoin="miter" stroke-miterlimit="10" stroke-dasharray="" stroke-dashoffset="0" font-family="none" font-weight="none" font-size="none" text-anchor="none" style="mix-blend-mode: normal"><path d="M241.96436,215.01581l-1.78722,-2.43966l14.30411,-8.20279l1.78722,2.43966z" data-paper-data="{&quot;origPos&quot;:null,&quot;origRot&quot;:0,&quot;index&quot;:null}" fill="url(#color-1)" stroke-width="1"/><path d="M223.47714,206.81303l1.78722,-2.43966l14.30411,8.20279l-1.78722,2.43966z" data-paper-data="{&quot;origPos&quot;:null,&quot;origRot&quot;:0}" fill="url(#color-2)" stroke-width="1"/><path d="M237.49946,213.6946v-25.25h5v25.25z" data-paper-data="{&quot;origPos&quot;:null}" fill="url(#color-3)" stroke-width="2"/><path d="M215.1751,213.62091l7.87773,-9.10543l2.31494,2.00281l-7.87773,9.10543z" data-paper-data="{&quot;origPos&quot;:null,&quot;origRot&quot;:0}" fill="url(#color-4)" stroke-width="1"/><path d="M248.32373,212.82775l-3.02901,-4.98885l1.25718,-0.83045l3.02901,4.98886z" data-paper-data="{&quot;origPos&quot;:null,&quot;origRot&quot;:0}" fill="#2800ff" stroke-width="1"/><path d="M252.08799,210.67348l-3.02901,-4.98886l1.25719,-0.83045l3.02901,4.98886z" data-paper-data="{&quot;origPos&quot;:null,&quot;origRot&quot;:0}" fill="#2800ff" stroke-width="1"/><path d="M230.64501,212.4366l3.02901,-4.98886l1.25718,0.83045l-3.02901,4.98886z" data-paper-data="{&quot;origPos&quot;:null,&quot;origRot&quot;:0,&quot;index&quot;:null}" fill="#2800ff" stroke-width="1"/><path d="M226.34446,209.89209l3.02901,-4.98886l1.25718,0.83045l-3.02901,4.98886z" data-paper-data="{&quot;origPos&quot;:null,&quot;origRot&quot;:0,&quot;index&quot;:null}" fill="#2800ff" stroke-width="1"/><path d="M263.05283,215.72371l-7.87773,-9.10543l2.31494,-2.00281l7.87773,9.10543z" data-paper-data="{&quot;origPos&quot;:null,&quot;origRot&quot;:0,&quot;index&quot;:null}" fill="url(#color-5)" stroke-width="1"/></g></g></svg>