<svg version="1.1" xmlns="http://www.w3.org/2000/svg" xmlns:xlink="http://www.w3.org/1999/xlink" width="17.375" height="16.875"><g transform="translate(-230.875,-171.72656)"><g data-paper-data="{&quot;isPaintingLayer&quot;:true}" fill="none" fill-rule="nonzero" stroke="none" stroke-width="none" stroke-linecap="butt" stroke-linejoin="miter" stroke-miterlimit="10" stroke-dasharray="" stroke-dashoffset="0" font-family="none" font-weight="none" font-size="none" text-anchor="none" style="mix-blend-mode: normal"><path d="M247.75,180.16406c0,4.38376 -3.66567,7.9375 -8.1875,7.9375c-4.52183,0 -8.1875,-3.55374 -8.1875,-7.9375c0,-4.38376 3.66567,-7.9375 8.1875,-7.9375c4.52183,0 8.1875,3.55374 8.1875,7.9375z" data-paper-data="{&quot;origPos&quot;:null}" fill="#ff0000" stroke="#000000" stroke-width="1"/><path d="M246.79816,176.89185c0.72131,1.35245 -0.39668,2.49501 -1.90767,1.77038c-0.72508,-0.34773 -1.27163,-1.85787 -2.00207,-2.38435c-0.84559,-0.60947 -1.81368,-0.54973 -2.62434,-1.09017c-0.65028,-0.04414 -1.16408,-0.58562 -1.16408,-1.24709c0,-0.67638 0.53722,-1.22729 1.20824,-1.24932c2.0447,-0.42648 5.73101,2.77761 6.48991,4.20054z" fill="#ffffff" stroke="none" stroke-width="0.5"/><path d="" fill="#005010" stroke="none" stroke-width="0.5"/></g></g></svg>