<svg version="1.1" xmlns="http://www.w3.org/2000/svg" xmlns:xlink="http://www.w3.org/1999/xlink" width="124.05143" height="172.56858" viewBox="0,0,124.05143,172.56858"><defs><linearGradient x1="247.50359" y1="170.54402" x2="259.53231" y2="170.54402" gradientUnits="userSpaceOnUse" id="color-1"><stop offset="0" stop-color="#00b9ff"/><stop offset="1" stop-color="#b4ffe6"/></linearGradient><linearGradient x1="226.00359" y1="170.87735" x2="238.03231" y2="170.87735" gradientUnits="userSpaceOnUse" id="color-2"><stop offset="0" stop-color="#00b9ff"/><stop offset="1" stop-color="#b4ffe6"/></linearGradient></defs><g transform="translate(-181.27342,-123.94189)"><g data-paper-data="{&quot;isPaintingLayer&quot;:true}" fill="none" fill-rule="nonzero" stroke="#000000" stroke-width="none" stroke-linecap="none" stroke-linejoin="miter" stroke-miterlimit="10" stroke-dasharray="" stroke-dashoffset="0" font-family="none" font-weight="none" font-size="none" text-anchor="none" style="mix-blend-mode: normal"><path d="M253.26994,183.23177c7.20291,-1.93874 15.7567,6.57536 19.10543,19.01675c3.34873,12.4414 0.22429,24.0988 -6.97862,26.03753c-7.20291,1.93874 -15.75671,-6.57536 -19.10544,-19.01675c-3.34873,-12.44139 -0.22428,-24.0988 6.97863,-26.03753z" data-paper-data="{&quot;origPos&quot;:null,&quot;origRot&quot;:0,&quot;index&quot;:null}" fill="#fffe00" stroke-width="0.5" stroke-linecap="butt"/><path d="M237.37537,209.76931c-3.34873,12.4414 -11.90252,20.95549 -19.10543,19.01675c-7.20291,-1.93874 -10.32735,-13.59614 -6.97862,-26.03753c3.34873,-12.44139 11.90252,-20.95549 19.10543,-19.01675c7.20291,1.93874 10.32736,13.59614 6.97863,26.03753z" data-paper-data="{&quot;origPos&quot;:null,&quot;origRot&quot;:0}" fill="#fffe00" stroke-width="0.5" stroke-linecap="butt"/><path d="M236.44964,255.41048v-55.10135h10.51201v55.10135z" data-paper-data="{&quot;origPos&quot;:null}" fill="#00ff13" stroke-width="0.5" stroke-linecap="butt"/><path d="M205.50446,170.7694c12.86828,0.64022 22.9996,7.19868 22.62894,14.64873c-0.37065,7.45005 -11.10292,12.97052 -23.97119,12.3303c-12.86828,-0.64022 -22.99959,-7.19867 -22.62894,-14.64872c0.37065,-7.45005 11.10291,-12.97053 23.97119,-12.33031z" data-paper-data="{&quot;origPos&quot;:null,&quot;origRot&quot;:0}" fill="#fffe00" stroke-width="0.5" stroke-linecap="butt"/><path d="M220.35619,206.31208c-8.63624,9.56126 -20.12468,13.25895 -25.66014,8.25903c-5.53546,-4.99992 -3.0218,-16.80411 5.61444,-26.36537c8.63624,-9.56126 20.12467,-13.25895 25.66013,-8.25902c5.53546,4.99992 3.02181,16.8041 -5.61443,26.36536z" data-paper-data="{&quot;origPos&quot;:null,&quot;origRot&quot;:0}" fill="#fffe00" stroke-width="0.5" stroke-linecap="butt"/><path d="M212.20162,152.34832c11.36207,6.07501 17.72167,16.33233 14.20456,22.91037c-3.51711,6.57804 -15.57907,6.98583 -26.94114,0.91082c-11.36207,-6.07501 -17.72167,-16.33232 -14.20455,-22.91036c3.51711,-6.57804 15.57907,-6.98583 26.94114,-0.91082z" data-paper-data="{&quot;origPos&quot;:null,&quot;origRot&quot;:0}" fill="#fffe00" stroke-width="0.5" stroke-linecap="butt"/><path d="M280.29857,198.26507c-12.88414,-0.03316 -23.31325,-6.10695 -23.29405,-13.56619c0.0192,-7.45924 10.47943,-13.47928 23.36357,-13.44611c12.88414,0.03316 23.31325,6.10695 23.29405,13.56619c-0.0192,7.45924 -10.47943,13.47928 -23.36357,13.44611z" data-paper-data="{&quot;origPos&quot;:null,&quot;origRot&quot;:0}" fill="#fffe00" stroke-width="0.5" stroke-linecap="butt"/><path d="M289.34942,177.85123c-11.53542,5.73901 -23.58023,4.9775 -26.90282,-1.7009c-3.32259,-6.6784 3.33523,-16.74472 14.87066,-22.48373c11.53542,-5.73901 23.58022,-4.9775 26.90281,1.70091c3.32259,6.6784 -3.33522,16.74471 -14.87065,22.48373z" data-paper-data="{&quot;origPos&quot;:null,&quot;origRot&quot;:0}" fill="#fffe00" stroke-width="0.5" stroke-linecap="butt"/><path d="M281.47795,162.57213c-7.93036,10.15439 -19.12496,14.6642 -25.00381,10.07293c-5.87885,-4.59126 -4.21578,-16.54498 3.71458,-26.69937c7.93036,-10.15439 19.12495,-14.66419 25.00381,-10.07293c5.87885,4.59126 4.21579,16.54497 -3.71457,26.69937z" data-paper-data="{&quot;origPos&quot;:null,&quot;origRot&quot;:0}" fill="#fffe00" stroke-width="0.5" stroke-linecap="butt"/><path d="M267.01733,151.69143c-2.79746,12.57683 -10.96792,21.45943 -18.24925,19.83984c-7.28132,-1.61959 -10.91621,-13.12805 -8.11875,-25.70488c2.79746,-12.57682 10.96792,-21.45942 18.24924,-19.83984c7.28132,1.61959 10.91621,13.12805 8.11875,25.70487z" data-paper-data="{&quot;origPos&quot;:null,&quot;origRot&quot;:0}" fill="#fffe00" stroke-width="0.5" stroke-linecap="butt"/><path d="M246.60912,144.77475c2.36975,12.66439 -1.65296,24.04309 -8.98497,25.41505c-7.33201,1.37196 -15.19685,-7.78235 -17.5666,-20.44674c-2.36975,-12.66439 1.65296,-24.04309 8.98497,-25.41505c7.33201,-1.37196 15.19685,7.78235 17.5666,20.44673z" data-paper-data="{&quot;origPos&quot;:null,&quot;origRot&quot;:0}" fill="#fffe00" stroke-width="0.5" stroke-linecap="butt"/><path d="M264.0955,206.75081c-7.14686,-10.72029 -7.90919,-22.76505 -1.7027,-26.9027c6.20648,-4.13765 17.03152,1.19862 24.17838,11.91892c7.14686,10.72029 7.90918,22.76504 1.7027,26.9027c-6.20648,4.13765 -17.03151,-1.19862 -24.17837,-11.91891z" data-paper-data="{&quot;origPos&quot;:null,&quot;origRot&quot;:0,&quot;index&quot;:null}" fill="#fffe00" stroke-width="0.5" stroke-linecap="butt"/><path d="M227.57117,144.76702c7.14686,10.72029 7.90918,22.76505 1.7027,26.9027c-6.20648,4.13765 -17.03151,-1.19863 -24.17837,-11.91892c-7.14686,-10.72029 -7.90918,-22.76504 -1.7027,-26.90269c6.20648,-4.13765 17.03151,1.19862 24.17837,11.91891z" data-paper-data="{&quot;origPos&quot;:null,&quot;origRot&quot;:0}" fill="#fffe00" stroke-width="0.5" stroke-linecap="butt"/><path d="M275.50392,176.50039c0,14.83938 -15.18186,26.86908 -33.90964,26.86908c-18.72778,0 -33.90964,-12.0297 -33.90964,-26.86908c0,-14.83938 15.18186,-26.86907 33.90964,-26.86907c18.72777,0 33.90964,12.02969 33.90964,26.86907z" fill="#b17713" stroke-width="0.5" stroke-linecap="butt"/><path d="M259.53231,170.54402c0,1.90686 -2.69272,3.4527 -6.01436,3.4527c-3.32164,0 -6.01436,-1.54582 -6.01436,-3.4527c0,-1.90686 2.69272,-3.45269 6.01436,-3.45269c3.32164,0 6.01436,1.54582 6.01436,3.45269z" data-paper-data="{&quot;origPos&quot;:null}" fill="url(#color-1)" stroke-width="2" stroke-linecap="butt"/><path d="M258.06977,190.23295c0,0 -2.35324,3.73379 -4.33541,4.00714c-1.29036,0.17795 -8.47034,1.43096 -11.55149,1.35474c-4.42128,-0.10938 -7.43949,-0.57611 -11.78509,-1.398c-1.83827,-0.34768 -5.23777,-4.58292 -5.23777,-4.58292" data-paper-data="{&quot;origPos&quot;:null,&quot;origRot&quot;:0}" fill="none" stroke-width="0.5" stroke-linecap="round"/><path d="M214.3038,223.19205l7.76838,-9.49471l18.25905,14.93922l-7.76838,9.4947z" data-paper-data="{&quot;origRot&quot;:0,&quot;origPos&quot;:null}" fill="#00ff13" stroke-width="1" stroke-linecap="butt"/><path d="M252.10898,236.80804l-6.84598,-8.29494l16.09097,-13.0515l6.84598,8.29497z" data-paper-data="{&quot;origRot&quot;:0,&quot;origPos&quot;:null,&quot;index&quot;:null}" fill="#00ff13" stroke-width="1" stroke-linecap="butt"/><path d="M212.08333,296.01047v-34.2h54v34.2z" data-paper-data="{&quot;origPos&quot;:null}" fill="#a30000" stroke-width="1" stroke-linecap="butt"/><path d="M205.48333,263.01047v-24h69.6v24z" data-paper-data="{&quot;origPos&quot;:null}" fill="#a30000" stroke-width="1" stroke-linecap="butt"/><path d="M238.03231,170.87735c0,1.90687 -2.69272,3.4527 -6.01435,3.4527c-3.32164,0 -6.01436,-1.54583 -6.01436,-3.4527c0,-1.90687 2.69273,-3.45269 6.01436,-3.45269c3.32164,0 6.01435,1.54582 6.01435,3.45269z" data-paper-data="{&quot;origPos&quot;:null}" fill="url(#color-2)" stroke-width="2" stroke-linecap="butt"/></g></g></svg>