<svg version="1.1" xmlns="http://www.w3.org/2000/svg" xmlns:xlink="http://www.w3.org/1999/xlink" width="120.00654" height="166.92437" viewBox="0,0,120.00654,166.92437"><defs><linearGradient x1="245.34349" y1="174.19444" x2="256.97841" y2="174.19444" gradientUnits="userSpaceOnUse" id="color-1"><stop offset="0" stop-color="#00b9ff"/><stop offset="1" stop-color="#b4ffe6"/></linearGradient><linearGradient x1="224.54737" y1="174.51344" x2="236.18229" y2="174.51344" gradientUnits="userSpaceOnUse" id="color-2"><stop offset="0" stop-color="#00b9ff"/><stop offset="1" stop-color="#b4ffe6"/></linearGradient></defs><g transform="translate(-181.27341,-129.58609)"><g data-paper-data="{&quot;isPaintingLayer&quot;:true}" fill="none" fill-rule="nonzero" stroke="#000000" stroke-width="none" stroke-linecap="none" stroke-linejoin="miter" stroke-miterlimit="10" stroke-dasharray="" stroke-dashoffset="0" font-family="none" font-weight="none" font-size="none" text-anchor="none" style="mix-blend-mode: normal"><path d="M250.92106,186.33644c6.9671,-1.85534 15.24085,6.29253 18.47995,18.19877c3.2391,11.90625 0.21695,23.06222 -6.75015,24.91756c-6.9671,1.85534 -15.24086,-6.29253 -18.47996,-18.19877c-3.2391,-11.90624 -0.21694,-23.06222 6.75016,-24.91756z" data-paper-data="{&quot;origPos&quot;:null,&quot;origRot&quot;:0,&quot;index&quot;:null}" fill="#fffe00" stroke-width="0.5" stroke-linecap="butt"/><path d="M235.54685,211.7325c-3.2391,11.90625 -11.51285,20.05412 -18.47995,18.19877c-6.9671,-1.85534 -9.98925,-13.01132 -6.75015,-24.91756c3.2391,-11.90624 11.51285,-20.05412 18.47995,-18.19877c6.9671,1.85534 9.98926,13.01132 6.75016,24.91756z" data-paper-data="{&quot;origPos&quot;:null,&quot;origRot&quot;:0}" fill="#fffe00" stroke-width="0.5" stroke-linecap="butt"/><path d="M234.65143,255.41048v-52.73123h10.16786v52.73123z" data-paper-data="{&quot;origPos&quot;:null}" fill="#00ff13" stroke-width="0.5" stroke-linecap="butt"/><path d="M204.71935,174.41012c12.44699,0.61268 22.24663,6.88904 21.8881,14.01863c-0.35852,7.12959 -10.73943,12.4126 -23.18641,11.79993c-12.44699,-0.61268 -22.24662,-6.88903 -21.8881,-14.01862c0.35852,-7.12959 10.73942,-12.41261 23.18641,-11.79993z" data-paper-data="{&quot;origPos&quot;:null,&quot;origRot&quot;:0}" fill="#fffe00" stroke-width="0.5" stroke-linecap="butt"/><path d="M219.08486,208.42398c-8.3535,9.14999 -19.46583,12.68863 -24.82006,7.90378c-5.35424,-4.78486 -2.92287,-16.0813 5.43063,-25.2313c8.3535,-9.14999 19.46582,-12.68863 24.82005,-7.90377c5.35424,4.78486 2.92288,16.08129 -5.43062,25.23129z" data-paper-data="{&quot;origPos&quot;:null,&quot;origRot&quot;:0}" fill="#fffe00" stroke-width="0.5" stroke-linecap="butt"/><path d="M211.19726,156.78141c10.99009,5.8137 17.14149,15.62981 13.73952,21.9249c-3.40196,6.29509 -15.06903,6.68534 -26.05913,0.87164c-10.99009,-5.8137 -17.14149,-15.62981 -13.73951,-21.9249c3.40196,-6.29509 15.06903,-6.68534 26.05913,-0.87164z" data-paper-data="{&quot;origPos&quot;:null,&quot;origRot&quot;:0}" fill="#fffe00" stroke-width="0.5" stroke-linecap="butt"/><path d="M277.06481,200.7231c-12.46233,-0.03173 -22.55001,-5.84427 -22.53144,-12.98266c0.01857,-7.13839 10.13635,-12.89948 22.59868,-12.86774c12.46233,0.03173 22.55001,5.84427 22.53144,12.98266c-0.01857,7.13839 -10.13635,12.89948 -22.59868,12.86774z" data-paper-data="{&quot;origPos&quot;:null,&quot;origRot&quot;:0}" fill="#fffe00" stroke-width="0.5" stroke-linecap="butt"/><path d="M285.81935,181.18734c-11.15777,5.49216 -22.80825,4.76339 -26.02206,-1.62774c-3.21381,-6.39114 3.22604,-16.02447 14.38382,-21.51661c11.15777,-5.49216 22.80824,-4.76339 26.02205,1.62775c3.21381,6.39114 -3.22603,16.02446 -14.38381,21.51661z" data-paper-data="{&quot;origPos&quot;:null,&quot;origRot&quot;:0}" fill="#fffe00" stroke-width="0.5" stroke-linecap="butt"/><path d="M278.20558,166.56545c-7.67073,9.71761 -18.49884,14.03344 -24.18522,9.63966c-5.68638,-4.39377 -4.07776,-15.83332 3.59297,-25.55093c7.67073,-9.71761 18.49883,-14.03343 24.18522,-9.63966c5.68638,4.39377 4.07777,15.83331 -3.59296,25.55093z" data-paper-data="{&quot;origPos&quot;:null,&quot;origRot&quot;:0}" fill="#fffe00" stroke-width="0.5" stroke-linecap="butt"/><path d="M264.21838,156.15277c-2.70588,12.03586 -10.60885,20.53638 -17.6518,18.98645c-7.04294,-1.54993 -10.55883,-12.56337 -7.85295,-24.59922c2.70588,-12.03585 10.60885,-20.53637 17.65179,-18.98645c7.04294,1.54993 10.55883,12.56337 7.85295,24.5992z" data-paper-data="{&quot;origPos&quot;:null,&quot;origRot&quot;:0}" fill="#fffe00" stroke-width="0.5" stroke-linecap="butt"/><path d="M244.4783,149.53361c2.29217,12.11965 -1.59884,23.00891 -8.69082,24.32185c-7.09197,1.31295 -14.69933,-7.44761 -16.99149,-19.56725c-2.29217,-12.11965 1.59884,-23.00891 8.69082,-24.32185c7.09197,-1.31295 14.69933,7.44761 16.99149,19.56724z" data-paper-data="{&quot;origPos&quot;:null,&quot;origRot&quot;:0}" fill="#fffe00" stroke-width="0.5" stroke-linecap="butt"/><path d="M261.39221,208.84384c-6.91288,-10.25917 -7.65025,-21.78584 -1.64696,-25.74551c6.00329,-3.95968 16.47393,1.14706 23.38681,11.40625c6.91288,10.25917 7.65024,21.78583 1.64696,25.74551c-6.00329,3.95968 -16.47392,-1.14706 -23.38681,-11.40624z" data-paper-data="{&quot;origPos&quot;:null,&quot;origRot&quot;:0,&quot;index&quot;:null}" fill="#fffe00" stroke-width="0.5" stroke-linecap="butt"/><path d="M226.06363,149.5262c6.91288,10.25917 7.65024,21.78584 1.64696,25.74551c-6.00329,3.95968 -16.47392,-1.14707 -23.38681,-11.40625c-6.91288,-10.25917 -7.65024,-21.78583 -1.64696,-25.7455c6.00329,-3.95968 16.47392,1.14706 23.38681,11.40624z" data-paper-data="{&quot;origPos&quot;:null,&quot;origRot&quot;:0}" fill="#fffe00" stroke-width="0.5" stroke-linecap="butt"/><path d="M272.42713,179.89461c0,14.20108 -14.68483,25.71334 -32.79949,25.71334c-18.11466,0 -32.79949,-11.51226 -32.79949,-25.71334c0,-14.20108 14.68483,-25.71333 32.79949,-25.71333c18.11465,0 32.79949,11.51225 32.79949,25.71333z" fill="#b17713" stroke-width="0.5" stroke-linecap="butt"/><path d="M256.97841,174.19444c0,1.82484 -2.60456,3.30419 -5.81746,3.30419c-3.21289,0 -5.81746,-1.47933 -5.81746,-3.30419c0,-1.82484 2.60456,-3.30418 5.81746,-3.30418c3.21289,0 5.81746,1.47933 5.81746,3.30418z" data-paper-data="{&quot;origPos&quot;:null}" fill="url(#color-1)" stroke-width="2" stroke-linecap="butt"/><path d="M255.56375,193.03647c0,0 -2.2762,3.57319 -4.19347,3.83478c-1.24812,0.17029 -8.19303,1.36941 -11.17331,1.29647c-4.27653,-0.10468 -7.19593,-0.55133 -11.39926,-1.33786c-1.77809,-0.33272 -5.06629,-4.38579 -5.06629,-4.38579" data-paper-data="{&quot;origPos&quot;:null,&quot;origRot&quot;:0}" fill="none" stroke-width="0.5" stroke-linecap="round"/><path d="M213.23061,224.57788l7.51405,-9.08631l17.66128,14.29663l-7.51405,9.0863z" data-paper-data="{&quot;origRot&quot;:0,&quot;origPos&quot;:null}" fill="#00ff13" stroke-width="1" stroke-linecap="butt"/><path d="M249.79811,237.6082l-6.62185,-7.93814l15.56417,-12.4901l6.62185,7.93817z" data-paper-data="{&quot;origRot&quot;:0,&quot;origPos&quot;:null,&quot;index&quot;:null}" fill="#00ff13" stroke-width="1" stroke-linecap="butt"/><path d="M236.18229,174.51344c0,1.82485 -2.60456,3.30419 -5.81745,3.30419c-3.21289,0 -5.81746,-1.47934 -5.81746,-3.30419c0,-1.82485 2.60457,-3.30418 5.81746,-3.30418c3.21289,0 5.81745,1.47933 5.81745,3.30418z" data-paper-data="{&quot;origPos&quot;:null}" fill="url(#color-2)" stroke-width="2" stroke-linecap="butt"/><path d="M212.08333,296.01047v-34.2h54v34.2z" data-paper-data="{&quot;origPos&quot;:null}" fill="#a30000" stroke-width="1" stroke-linecap="butt"/><path d="M205.48333,263.01047v-24h69.6v24z" data-paper-data="{&quot;origPos&quot;:null}" fill="#a30000" stroke-width="1" stroke-linecap="butt"/></g></g></svg>