<svg version="1.1" xmlns="http://www.w3.org/2000/svg" xmlns:xlink="http://www.w3.org/1999/xlink" width="124.05143" height="172.56858" viewBox="0,0,124.05143,172.56858"><defs><linearGradient x1="239.09467" y1="170.54402" x2="227.06595" y2="170.54402" gradientUnits="userSpaceOnUse" id="color-1"><stop offset="0" stop-color="#00b9ff"/><stop offset="1" stop-color="#b4ffe6"/></linearGradient><linearGradient x1="260.59467" y1="170.87735" x2="248.56595" y2="170.87735" gradientUnits="userSpaceOnUse" id="color-2"><stop offset="0" stop-color="#00b9ff"/><stop offset="1" stop-color="#b4ffe6"/></linearGradient></defs><g transform="translate(-181.27342,-123.94189)"><g data-paper-data="{&quot;isPaintingLayer&quot;:true}" fill="none" fill-rule="nonzero" stroke="#000000" stroke-width="none" stroke-linecap="none" stroke-linejoin="miter" stroke-miterlimit="10" stroke-dasharray="" stroke-dashoffset="0" font-family="none" font-weight="none" font-size="none" text-anchor="none" style="mix-blend-mode: normal"><path d="M240.30695,209.2693c-3.34873,12.44139 -11.90253,20.95549 -19.10544,19.01675c-7.20291,-1.93873 -10.32735,-13.59613 -6.97862,-26.03753c3.34873,-12.44139 11.90252,-20.95549 19.10543,-19.01675c7.20291,1.93873 10.32736,13.59614 6.97863,26.03753z" data-paper-data="{&quot;origPos&quot;:null,&quot;origRot&quot;:0,&quot;index&quot;:null}" fill="#fffe00" stroke-width="0.5" stroke-linecap="butt"/><path d="M249.22288,209.76931c-3.34873,-12.44139 -0.22428,-24.09879 6.97863,-26.03753c7.20291,-1.93874 15.7567,6.57536 19.10543,19.01675c3.34873,12.44139 0.22429,24.09879 -6.97862,26.03753c-7.20291,1.93874 -15.7567,-6.57535 -19.10543,-19.01675z" data-paper-data="{&quot;origPos&quot;:null,&quot;origRot&quot;:0,&quot;index&quot;:null}" fill="#fffe00" stroke-width="0.5" stroke-linecap="butt"/><path d="M239.63661,255.41048v-55.10135h10.51201v55.10135z" data-paper-data="{&quot;origPos&quot;:null,&quot;index&quot;:null}" fill="#00ff13" stroke-width="0.5" stroke-linecap="butt"/><path d="M305.06499,183.09971c0.37065,7.45005 -9.76066,14.0085 -22.62894,14.64872c-12.86827,0.64022 -23.60054,-4.88025 -23.97119,-12.3303c-0.37066,-7.45005 9.76066,-14.00851 22.62894,-14.64873c12.86828,-0.64022 23.60054,4.88026 23.97119,12.33031z" data-paper-data="{&quot;origPos&quot;:null,&quot;origRot&quot;:0,&quot;index&quot;:null}" fill="#fffe00" stroke-width="0.5" stroke-linecap="butt"/><path d="M260.62764,179.94672c5.53546,-4.99993 17.02389,-1.30224 25.66013,8.25902c8.63624,9.56126 11.1499,21.36545 5.61444,26.36537c-5.53546,4.99992 -17.0239,1.30223 -25.66014,-8.25903c-8.63624,-9.56126 -11.14989,-21.36544 -5.61443,-26.36536z" data-paper-data="{&quot;origPos&quot;:null,&quot;origRot&quot;:0,&quot;index&quot;:null}" fill="#fffe00" stroke-width="0.5" stroke-linecap="butt"/><path d="M274.39663,152.34833c11.36207,-6.07501 23.42403,-5.66722 26.94114,0.91082c3.51712,6.57804 -2.84248,16.83535 -14.20455,22.91036c-11.36207,6.07501 -23.42403,5.66722 -26.94114,-0.91082c-3.51711,-6.57804 2.84249,-16.83536 14.20456,-22.91037z" data-paper-data="{&quot;origPos&quot;:null,&quot;origRot&quot;:0,&quot;index&quot;:null}" fill="#fffe00" stroke-width="0.5" stroke-linecap="butt"/><path d="M182.93612,184.81896c-0.0192,-7.45924 10.40991,-13.53303 23.29405,-13.56619c12.88414,-0.03317 23.34437,5.98687 23.36357,13.44611c0.0192,7.45924 -10.40991,13.53303 -23.29405,13.56619c-12.88414,0.03317 -23.34437,-5.98687 -23.36357,-13.44611z" data-paper-data="{&quot;origPos&quot;:null,&quot;origRot&quot;:0,&quot;index&quot;:null}" fill="#fffe00" stroke-width="0.5" stroke-linecap="butt"/><path d="M197.24884,177.85124c-11.53543,-5.73902 -18.19324,-15.80533 -14.87065,-22.48373c3.32259,-6.67841 15.36739,-7.43992 26.90281,-1.70091c11.53543,5.73901 18.19325,15.80533 14.87066,22.48373c-3.32259,6.6784 -15.3674,7.43991 -26.90282,1.7009z" data-paper-data="{&quot;origPos&quot;:null,&quot;origRot&quot;:0,&quot;index&quot;:null}" fill="#fffe00" stroke-width="0.5" stroke-linecap="butt"/><path d="M205.1203,162.57213c-7.93036,-10.1544 -9.59342,-22.10811 -3.71457,-26.69937c5.87886,-4.59126 17.07345,-0.08146 25.00381,10.07293c7.93036,10.15439 9.59343,22.10811 3.71458,26.69937c-5.87885,4.59127 -17.07345,0.08146 -25.00381,-10.07293z" data-paper-data="{&quot;origPos&quot;:null,&quot;origRot&quot;:0,&quot;index&quot;:null}" fill="#fffe00" stroke-width="0.5" stroke-linecap="butt"/><path d="M219.58094,151.69142c-2.79746,-12.57682 0.83743,-24.08528 8.11875,-25.70487c7.28132,-1.61958 15.45178,7.26302 18.24924,19.83984c2.79746,12.57683 -0.83743,24.08529 -8.11875,25.70488c-7.28133,1.61959 -15.45179,-7.26301 -18.24925,-19.83984z" data-paper-data="{&quot;origPos&quot;:null,&quot;origRot&quot;:0,&quot;index&quot;:null}" fill="#fffe00" stroke-width="0.5" stroke-linecap="butt"/><path d="M239.98914,144.77474c2.36975,-12.66438 10.23459,-21.81869 17.5666,-20.44673c7.33201,1.37196 11.35472,12.75066 8.98497,25.41505c-2.36975,12.66439 -10.23459,21.8187 -17.5666,20.44674c-7.33201,-1.37196 -11.35472,-12.75066 -8.98497,-25.41505z" data-paper-data="{&quot;origPos&quot;:null,&quot;origRot&quot;:0,&quot;index&quot;:null}" fill="#fffe00" stroke-width="0.5" stroke-linecap="butt"/><path d="M222.50275,206.75082c-7.14686,10.72029 -17.97189,16.05656 -24.17837,11.91891c-6.20648,-4.13766 -5.44416,-16.18241 1.7027,-26.9027c7.14686,-10.7203 17.9719,-16.05657 24.17838,-11.91892c6.20649,4.13765 5.44416,16.18241 -1.7027,26.9027z" data-paper-data="{&quot;origPos&quot;:null,&quot;origRot&quot;:0,&quot;index&quot;:null}" fill="#fffe00" stroke-width="0.5" stroke-linecap="butt"/><path d="M283.20546,132.84811c6.20648,4.13765 5.44416,16.1824 -1.7027,26.90269c-7.14686,10.72029 -17.97189,16.05657 -24.17837,11.91892c-6.20648,-4.13765 -5.44416,-16.18241 1.7027,-26.9027c7.14686,-10.72029 17.97189,-16.05656 24.17837,-11.91891z" data-paper-data="{&quot;origPos&quot;:null,&quot;origRot&quot;:0,&quot;index&quot;:null}" fill="#fffe00" stroke-width="0.5" stroke-linecap="butt"/><path d="M245.00398,149.63132c18.72778,0 33.90964,12.02969 33.90964,26.86907c0,14.83938 -15.18186,26.86908 -33.90964,26.86908c-18.72778,0 -33.90964,-12.0297 -33.90964,-26.86908c0,-14.83938 15.18187,-26.86907 33.90964,-26.86907z" data-paper-data="{&quot;index&quot;:null}" fill="#b17713" stroke-width="0.5" stroke-linecap="butt"/><path d="M233.08031,167.09133c3.32164,0 6.01436,1.54583 6.01436,3.45269c0,1.90688 -2.69272,3.4527 -6.01436,3.4527c-3.32164,0 -6.01436,-1.54584 -6.01436,-3.4527c0,-1.90687 2.69272,-3.45269 6.01436,-3.45269z" data-paper-data="{&quot;origPos&quot;:null,&quot;index&quot;:null}" fill="url(#color-1)" stroke-width="2" stroke-linecap="butt"/><path d="M261.43825,189.61391c0,0 -3.3995,4.23524 -5.23777,4.58292c-4.3456,0.82189 -7.36381,1.28862 -11.78509,1.398c-3.08115,0.07622 -10.26113,-1.17679 -11.55149,-1.35474c-1.98217,-0.27335 -4.33541,-4.00714 -4.33541,-4.00714" data-paper-data="{&quot;origPos&quot;:null,&quot;origRot&quot;:0,&quot;index&quot;:null}" fill="none" stroke-width="0.5" stroke-linecap="round"/><path d="M254.03541,238.13126l-7.76838,-9.4947l18.25905,-14.93922l7.76838,9.49471z" data-paper-data="{&quot;origRot&quot;:0,&quot;origPos&quot;:null,&quot;index&quot;:null}" fill="#00ff13" stroke-width="1" stroke-linecap="butt"/><path d="M218.39831,223.75657l6.84598,-8.29497l16.09097,13.0515l-6.84598,8.29494z" data-paper-data="{&quot;origRot&quot;:0,&quot;origPos&quot;:null,&quot;index&quot;:null}" fill="#00ff13" stroke-width="1" stroke-linecap="butt"/><path d="M254.5803,167.42466c3.32163,0 6.01436,1.54582 6.01436,3.45269c0,1.90687 -2.69272,3.4527 -6.01436,3.4527c-3.32163,0 -6.01435,-1.54583 -6.01435,-3.4527c0,-1.90687 2.69271,-3.45269 6.01435,-3.45269z" data-paper-data="{&quot;origPos&quot;:null,&quot;index&quot;:null}" fill="url(#color-2)" stroke-width="2" stroke-linecap="butt"/><path d="M212.08333,296.01047v-34.2h54v34.2z" data-paper-data="{&quot;origPos&quot;:null}" fill="#a30000" stroke-width="1" stroke-linecap="butt"/><path d="M205.48333,263.01047v-24h69.6v24z" data-paper-data="{&quot;origPos&quot;:null}" fill="#a30000" stroke-width="1" stroke-linecap="butt"/></g></g></svg>