<svg version="1.1" xmlns="http://www.w3.org/2000/svg" xmlns:xlink="http://www.w3.org/1999/xlink" width="124.05143" height="162.54583" viewBox="0,0,124.05143,162.54583"><defs><linearGradient x1="237.66284" y1="177.53208" x2="225.63412" y2="177.53208" gradientUnits="userSpaceOnUse" id="color-1"><stop offset="0" stop-color="#00b9ff"/><stop offset="1" stop-color="#b4ffe6"/></linearGradient><linearGradient x1="259.16284" y1="177.84359" x2="247.13412" y2="177.84359" gradientUnits="userSpaceOnUse" id="color-2"><stop offset="0" stop-color="#00b9ff"/><stop offset="1" stop-color="#b4ffe6"/></linearGradient></defs><g transform="translate(-179.84159,-133.96464)"><g data-paper-data="{&quot;isPaintingLayer&quot;:true}" fill="none" fill-rule="nonzero" stroke="#000000" stroke-width="none" stroke-linecap="none" stroke-linejoin="miter" stroke-miterlimit="10" stroke-dasharray="" stroke-dashoffset="0" font-family="none" font-weight="none" font-size="none" text-anchor="none" style="mix-blend-mode: normal"><path d="M238.87512,213.722c-3.34873,11.62685 -11.90253,19.58353 -19.10544,17.77172c-7.20291,-1.8118 -10.32735,-12.70598 -6.97862,-24.33284c3.34873,-11.62685 11.90252,-19.58353 19.10543,-17.77172c7.20291,1.8118 10.32736,12.70599 6.97863,24.33284z" data-paper-data="{&quot;origPos&quot;:null,&quot;origRot&quot;:0,&quot;index&quot;:null}" fill="#fffe00" stroke-width="0.5" stroke-linecap="butt"/><path d="M247.79105,214.18928c-3.34873,-11.62684 -0.22428,-22.52103 6.97863,-24.33284c7.20291,-1.81181 15.7567,6.14487 19.10543,17.77172c3.34873,11.62684 0.22429,22.52103 -6.97862,24.33284c-7.20291,1.81181 -15.7567,-6.14486 -19.10543,-17.77172z" data-paper-data="{&quot;origPos&quot;:null,&quot;origRot&quot;:0,&quot;index&quot;:null}" fill="#fffe00" stroke-width="0.5" stroke-linecap="butt"/><path d="M238.20478,256.8423v-51.49384h10.51201v51.49384z" data-paper-data="{&quot;origPos&quot;:null,&quot;index&quot;:null}" fill="#00ff13" stroke-width="0.5" stroke-linecap="butt"/><path d="M303.63316,189.26574c0.37065,6.96229 -9.76066,13.09136 -22.62894,13.68966c-12.86827,0.59831 -23.60054,-4.56074 -23.97119,-11.52303c-0.37066,-6.96229 9.76066,-13.09137 22.62894,-13.68967c12.86828,-0.5983 23.60054,4.56075 23.97119,11.52304z" data-paper-data="{&quot;origPos&quot;:null,&quot;origRot&quot;:0,&quot;index&quot;:null}" fill="#fffe00" stroke-width="0.5" stroke-linecap="butt"/><path d="M259.19581,186.31918c5.53546,-4.67258 17.02389,-1.21698 25.66013,7.7183c8.63624,8.93528 11.1499,19.96665 5.61444,24.63922c-5.53546,4.67257 -17.0239,1.21697 -25.66014,-7.71831c-8.63624,-8.93528 -11.14989,-19.96664 -5.61443,-24.63921z" data-paper-data="{&quot;origPos&quot;:null,&quot;origRot&quot;:0,&quot;index&quot;:null}" fill="#fffe00" stroke-width="0.5" stroke-linecap="butt"/><path d="M272.9648,160.52767c11.36207,-5.67728 23.42403,-5.29618 26.94114,0.85119c3.51712,6.14737 -2.84248,15.73313 -14.20455,21.41041c-11.36207,5.67728 -23.42403,5.29618 -26.94114,-0.85119c-3.51711,-6.14737 2.84249,-15.73314 14.20456,-21.41042z" data-paper-data="{&quot;origPos&quot;:null,&quot;origRot&quot;:0,&quot;index&quot;:null}" fill="#fffe00" stroke-width="0.5" stroke-linecap="butt"/><path d="M181.50429,190.87243c-0.0192,-6.97088 10.40991,-12.64702 23.29405,-12.67801c12.88414,-0.031 23.34437,5.59491 23.36357,12.56579c0.0192,6.97088 -10.40991,12.64702 -23.29405,12.67801c-12.88414,0.031 -23.34437,-5.59491 -23.36357,-12.56579z" data-paper-data="{&quot;origPos&quot;:null,&quot;origRot&quot;:0,&quot;index&quot;:null}" fill="#fffe00" stroke-width="0.5" stroke-linecap="butt"/><path d="M195.81701,184.36089c-11.53543,-5.36328 -18.19324,-14.77055 -14.87065,-21.01171c3.32259,-6.24117 15.36739,-6.95282 26.90281,-1.58955c11.53543,5.36327 18.19325,14.77055 14.87066,21.01171c-3.32259,6.24116 -15.3674,6.95281 -26.90282,1.58954z" data-paper-data="{&quot;origPos&quot;:null,&quot;origRot&quot;:0,&quot;index&quot;:null}" fill="#fffe00" stroke-width="0.5" stroke-linecap="butt"/><path d="M203.68847,170.08211c-7.93036,-9.48959 -9.59342,-20.66068 -3.71457,-24.95135c5.87886,-4.29067 17.07345,-0.07613 25.00381,9.41345c7.93036,9.48958 9.59343,20.66068 3.71458,24.95135c-5.87885,4.29068 -17.07345,0.07613 -25.00381,-9.41345z" data-paper-data="{&quot;origPos&quot;:null,&quot;origRot&quot;:0,&quot;index&quot;:null}" fill="#fffe00" stroke-width="0.5" stroke-linecap="butt"/><path d="M218.14911,159.91377c-2.79746,-11.75341 0.83743,-22.50841 8.11875,-24.02196c7.28132,-1.51354 15.45178,6.78751 18.24924,18.54092c2.79746,11.75342 -0.83743,22.50842 -8.11875,24.02197c-7.28133,1.51355 -15.45179,-6.7875 -18.24925,-18.54092z" data-paper-data="{&quot;origPos&quot;:null,&quot;origRot&quot;:0,&quot;index&quot;:null}" fill="#fffe00" stroke-width="0.5" stroke-linecap="butt"/><path d="M256.12391,134.34185c7.33201,1.28214 11.35472,11.91587 8.98497,23.75112c-2.36975,11.83524 -10.23459,20.39022 -17.5666,19.10808c-7.33201,-1.28214 -11.35472,-11.91587 -8.98497,-23.75112c2.36975,-11.83524 10.23459,-20.39022 17.5666,-19.10808z" data-paper-data="{&quot;origPos&quot;:null,&quot;origRot&quot;:0,&quot;index&quot;:null}" fill="#fffe00" stroke-width="0.5" stroke-linecap="butt"/><path d="M221.07092,211.36841c-7.14686,10.01842 -17.97189,15.00533 -24.17837,11.13857c-6.20648,-3.86677 -5.44416,-15.12294 1.7027,-25.14137c7.14686,-10.01843 17.9719,-15.00534 24.17838,-11.13858c6.20649,3.86676 5.44416,15.12294 -1.7027,25.14137z" data-paper-data="{&quot;origPos&quot;:null,&quot;origRot&quot;:0,&quot;index&quot;:null}" fill="#fffe00" stroke-width="0.5" stroke-linecap="butt"/><path d="M281.77363,142.30414c6.20648,3.86676 5.44416,15.12293 -1.7027,25.14136c-7.14686,10.01842 -17.97189,15.00534 -24.17837,11.13858c-6.20648,-3.86676 -5.44416,-15.12294 1.7027,-25.14137c7.14686,-10.01842 17.97189,-15.00533 24.17837,-11.13857z" data-paper-data="{&quot;origPos&quot;:null,&quot;origRot&quot;:0,&quot;index&quot;:null}" fill="#fffe00" stroke-width="0.5" stroke-linecap="butt"/><path d="M243.57215,157.98854c18.72778,0 33.90964,11.2421 33.90964,25.10994c0,13.86784 -15.18186,25.10995 -33.90964,25.10995c-18.72778,0 -33.90964,-11.24211 -33.90964,-25.10995c0,-13.86784 15.18187,-25.10994 33.90964,-25.10994z" data-paper-data="{&quot;origPos&quot;:null,&quot;index&quot;:null}" fill="#b17713" stroke-width="0.5" stroke-linecap="butt"/><path d="M231.64848,174.30544c3.32164,0 6.01436,1.44462 6.01436,3.22664c0,1.78204 -2.69272,3.22665 -6.01436,3.22665c-3.32164,0 -6.01436,-1.44463 -6.01436,-3.22665c0,-1.78203 2.69272,-3.22664 6.01436,-3.22664z" data-paper-data="{&quot;origPos&quot;:null,&quot;index&quot;:null}" fill="url(#color-1)" stroke-width="2" stroke-linecap="butt"/><path d="M260.00642,195.35346c0,0 -3.3995,3.95795 -5.23777,4.28287c-4.3456,0.76808 -7.36381,1.20425 -11.78509,1.30647c-3.08115,0.07123 -10.26113,-1.09974 -11.55149,-1.26604c-1.98217,-0.25545 -4.33541,-3.74479 -4.33541,-3.74479" data-paper-data="{&quot;origPos&quot;:null,&quot;origRot&quot;:0,&quot;index&quot;:null}" fill="none" stroke-width="0.5" stroke-linecap="round"/><path d="M252.60358,240.69435l-7.76838,-8.87308l18.25905,-13.96114l7.76838,8.87309z" data-paper-data="{&quot;origRot&quot;:0,&quot;origPos&quot;:null,&quot;index&quot;:null}" fill="#00ff13" stroke-width="1" stroke-linecap="butt"/><path d="M216.96648,227.26079l6.84598,-7.7519l16.09097,12.19701l-6.84598,7.75187z" data-paper-data="{&quot;origRot&quot;:0,&quot;origPos&quot;:null,&quot;index&quot;:null}" fill="#00ff13" stroke-width="1" stroke-linecap="butt"/><path d="M253.14847,174.61695c3.32163,0 6.01436,1.44461 6.01436,3.22664c0,1.78203 -2.69272,3.22665 -6.01436,3.22665c-3.32163,0 -6.01435,-1.44462 -6.01435,-3.22665c0,-1.78203 2.69271,-3.22664 6.01435,-3.22664z" data-paper-data="{&quot;origPos&quot;:null,&quot;index&quot;:null}" fill="url(#color-2)" stroke-width="2" stroke-linecap="butt"/><path d="M212.08333,296.01047v-34.2h54v34.2z" data-paper-data="{&quot;origPos&quot;:null}" fill="#a30000" stroke-width="1" stroke-linecap="butt"/><path d="M205.48333,263.01047v-24h69.6v24z" data-paper-data="{&quot;origPos&quot;:null}" fill="#a30000" stroke-width="1" stroke-linecap="butt"/></g></g></svg>