<svg version="1.1" xmlns="http://www.w3.org/2000/svg" xmlns:xlink="http://www.w3.org/1999/xlink" width="124.05143" height="162.54583" viewBox="0,0,124.05143,162.54583"><defs><linearGradient x1="246.07176" y1="177.53208" x2="258.10048" y2="177.53208" gradientUnits="userSpaceOnUse" id="color-1"><stop offset="0" stop-color="#00b9ff"/><stop offset="1" stop-color="#b4ffe6"/></linearGradient><linearGradient x1="224.57176" y1="177.84359" x2="236.60048" y2="177.84359" gradientUnits="userSpaceOnUse" id="color-2"><stop offset="0" stop-color="#00b9ff"/><stop offset="1" stop-color="#b4ffe6"/></linearGradient></defs><g transform="translate(-179.84159,-133.96464)"><g data-paper-data="{&quot;isPaintingLayer&quot;:true}" fill="none" fill-rule="nonzero" stroke="#000000" stroke-width="none" stroke-linecap="none" stroke-linejoin="miter" stroke-miterlimit="10" stroke-dasharray="" stroke-dashoffset="0" font-family="none" font-weight="none" font-size="none" text-anchor="none" style="mix-blend-mode: normal"><path d="M251.83811,189.38916c7.20291,-1.81181 15.7567,6.14487 19.10543,17.77172c3.34873,11.62686 0.22429,22.52104 -6.97862,24.33284c-7.20291,1.81181 -15.75671,-6.14487 -19.10544,-17.77172c-3.34873,-11.62685 -0.22428,-22.52104 6.97863,-24.33284z" data-paper-data="{&quot;origPos&quot;:null,&quot;origRot&quot;:0,&quot;index&quot;:null}" fill="#fffe00" stroke-width="0.5" stroke-linecap="butt"/><path d="M235.94354,214.18928c-3.34873,11.62686 -11.90252,19.58353 -19.10543,17.77172c-7.20291,-1.81181 -10.32735,-12.706 -6.97862,-24.33284c3.34873,-11.62685 11.90252,-19.58353 19.10543,-17.77172c7.20291,1.81181 10.32736,12.706 6.97863,24.33284z" data-paper-data="{&quot;origPos&quot;:null,&quot;origRot&quot;:0}" fill="#fffe00" stroke-width="0.5" stroke-linecap="butt"/><path d="M235.01781,256.8423v-51.49384h10.51201v51.49384z" data-paper-data="{&quot;origPos&quot;:null}" fill="#00ff13" stroke-width="0.5" stroke-linecap="butt"/><path d="M204.07263,177.7427c12.86828,0.5983 22.9996,6.72738 22.62894,13.68967c-0.37065,6.96229 -11.10292,12.12134 -23.97119,11.52303c-12.86828,-0.5983 -22.99959,-6.72737 -22.62894,-13.68966c0.37065,-6.96229 11.10291,-12.12134 23.97119,-11.52304z" data-paper-data="{&quot;origPos&quot;:null,&quot;origRot&quot;:0}" fill="#fffe00" stroke-width="0.5" stroke-linecap="butt"/><path d="M218.92436,210.95839c-8.63624,8.93528 -20.12468,12.39088 -25.66014,7.71831c-5.53546,-4.67257 -3.0218,-15.70394 5.61444,-24.63922c8.63624,-8.93528 20.12467,-12.39088 25.66013,-7.7183c5.53546,4.67257 3.02181,15.70393 -5.61443,24.63921z" data-paper-data="{&quot;origPos&quot;:null,&quot;origRot&quot;:0}" fill="#fffe00" stroke-width="0.5" stroke-linecap="butt"/><path d="M210.76979,160.52766c11.36207,5.67728 17.72167,15.26305 14.20456,21.41042c-3.51711,6.14737 -15.57907,6.52847 -26.94114,0.85119c-11.36207,-5.67728 -17.72167,-15.26304 -14.20455,-21.41041c3.51711,-6.14737 15.57907,-6.52847 26.94114,-0.85119z" data-paper-data="{&quot;origPos&quot;:null,&quot;origRot&quot;:0}" fill="#fffe00" stroke-width="0.5" stroke-linecap="butt"/><path d="M278.86674,203.43822c-12.88414,-0.03099 -23.31325,-5.70713 -23.29405,-12.67801c0.0192,-6.97088 10.47943,-12.59679 23.36357,-12.56579c12.88414,0.03099 23.31325,5.70713 23.29405,12.67801c-0.0192,6.97088 -10.47943,12.59679 -23.36357,12.56579z" data-paper-data="{&quot;origPos&quot;:null,&quot;origRot&quot;:0}" fill="#fffe00" stroke-width="0.5" stroke-linecap="butt"/><path d="M287.91759,184.36088c-11.53542,5.36327 -23.58023,4.65162 -26.90282,-1.58954c-3.32259,-6.24116 3.33523,-15.64844 14.87066,-21.01171c11.53542,-5.36327 23.58022,-4.65162 26.90281,1.58955c3.32259,6.24116 -3.33522,15.64843 -14.87065,21.01171z" data-paper-data="{&quot;origPos&quot;:null,&quot;origRot&quot;:0}" fill="#fffe00" stroke-width="0.5" stroke-linecap="butt"/><path d="M280.04612,170.08211c-7.93036,9.48958 -19.12496,13.70413 -25.00381,9.41345c-5.87885,-4.29067 -4.21578,-15.46177 3.71458,-24.95135c7.93036,-9.48958 19.12495,-13.70412 25.00381,-9.41345c5.87885,4.29067 4.21579,15.46176 -3.71457,24.95135z" data-paper-data="{&quot;origPos&quot;:null,&quot;origRot&quot;:0}" fill="#fffe00" stroke-width="0.5" stroke-linecap="butt"/><path d="M265.5855,159.91378c-2.79746,11.75342 -10.96792,20.05447 -18.24925,18.54092c-7.28132,-1.51355 -10.91621,-12.26855 -8.11875,-24.02197c2.79746,-11.75341 10.96792,-20.05446 18.24924,-18.54092c7.28132,1.51355 10.91621,12.26855 8.11875,24.02196z" data-paper-data="{&quot;origPos&quot;:null,&quot;origRot&quot;:0}" fill="#fffe00" stroke-width="0.5" stroke-linecap="butt"/><path d="M245.17729,153.44993c2.36975,11.83525 -1.65296,22.46898 -8.98497,23.75112c-7.33201,1.28214 -15.19685,-7.27284 -17.5666,-19.10808c-2.36975,-11.83525 1.65296,-22.46898 8.98497,-23.75112c7.33201,-1.28214 15.19685,7.27284 17.5666,19.10808z" data-paper-data="{&quot;origPos&quot;:null,&quot;origRot&quot;:0}" fill="#fffe00" stroke-width="0.5" stroke-linecap="butt"/><path d="M262.66367,211.3684c-7.14686,-10.01843 -7.90919,-21.27461 -1.7027,-25.14137c6.20648,-3.86676 17.03152,1.12015 24.17838,11.13858c7.14686,10.01843 7.90918,21.2746 1.7027,25.14137c-6.20648,3.86676 -17.03151,-1.12015 -24.17837,-11.13857z" data-paper-data="{&quot;origPos&quot;:null,&quot;origRot&quot;:0,&quot;index&quot;:null}" fill="#fffe00" stroke-width="0.5" stroke-linecap="butt"/><path d="M226.13934,153.44271c7.14686,10.01843 7.90918,21.27461 1.7027,25.14137c-6.20648,3.86676 -17.03151,-1.12016 -24.17837,-11.13858c-7.14686,-10.01843 -7.90918,-21.2746 -1.7027,-25.14136c6.20648,-3.86676 17.03151,1.12015 24.17837,11.13857z" data-paper-data="{&quot;origPos&quot;:null,&quot;origRot&quot;:0}" fill="#fffe00" stroke-width="0.5" stroke-linecap="butt"/><path d="M274.07209,183.09848c0,13.86784 -15.18186,25.10995 -33.90964,25.10995c-18.72778,0 -33.90964,-11.24211 -33.90964,-25.10995c0,-13.86784 15.18186,-25.10994 33.90964,-25.10994c18.72777,0 33.90964,11.2421 33.90964,25.10994z" data-paper-data="{&quot;origPos&quot;:null}" fill="#b17713" stroke-width="0.5" stroke-linecap="butt"/><path d="M258.10048,177.53208c0,1.78202 -2.69272,3.22665 -6.01436,3.22665c-3.32164,0 -6.01436,-1.44461 -6.01436,-3.22665c0,-1.78202 2.69272,-3.22664 6.01436,-3.22664c3.32164,0 6.01436,1.44461 6.01436,3.22664z" data-paper-data="{&quot;origPos&quot;:null}" fill="url(#color-1)" stroke-width="2" stroke-linecap="butt"/><path d="M256.63794,195.93197c0,0 -2.35324,3.48934 -4.33541,3.74479c-1.29036,0.1663 -8.47034,1.33727 -11.55149,1.26604c-4.42128,-0.10222 -7.43949,-0.53839 -11.78509,-1.30647c-1.83827,-0.32492 -5.23777,-4.28287 -5.23777,-4.28287" data-paper-data="{&quot;origPos&quot;:null,&quot;origRot&quot;:0}" fill="none" stroke-width="0.5" stroke-linecap="round"/><path d="M212.87197,226.73322l7.76838,-8.87309l18.25905,13.96114l-7.76838,8.87308z" data-paper-data="{&quot;origRot&quot;:0,&quot;origPos&quot;:null}" fill="#00ff13" stroke-width="1" stroke-linecap="butt"/><path d="M250.67715,239.45777l-6.84598,-7.75187l16.09097,-12.19701l6.84598,7.7519z" data-paper-data="{&quot;origRot&quot;:0,&quot;origPos&quot;:null,&quot;index&quot;:null}" fill="#00ff13" stroke-width="1" stroke-linecap="butt"/><path d="M236.60048,177.84359c0,1.78203 -2.69272,3.22665 -6.01435,3.22665c-3.32164,0 -6.01436,-1.44462 -6.01436,-3.22665c0,-1.78203 2.69273,-3.22664 6.01436,-3.22664c3.32164,0 6.01435,1.44461 6.01435,3.22664z" data-paper-data="{&quot;origPos&quot;:null}" fill="url(#color-2)" stroke-width="2" stroke-linecap="butt"/><path d="M212.08333,296.01047v-34.2h54v34.2z" data-paper-data="{&quot;origPos&quot;:null}" fill="#a30000" stroke-width="1" stroke-linecap="butt"/><path d="M205.48333,263.01047v-24h69.6v24z" data-paper-data="{&quot;origPos&quot;:null}" fill="#a30000" stroke-width="1" stroke-linecap="butt"/></g></g></svg>