<svg version="1.1" xmlns="http://www.w3.org/2000/svg" xmlns:xlink="http://www.w3.org/1999/xlink" width="119.99701" height="166.92437" viewBox="0,0,119.99701,166.92437"><defs><linearGradient x1="237.20987" y1="174.19444" x2="225.57495" y2="174.19444" gradientUnits="userSpaceOnUse" id="color-1"><stop offset="0" stop-color="#00b9ff"/><stop offset="1" stop-color="#b4ffe6"/></linearGradient><linearGradient x1="258.00599" y1="174.51344" x2="246.37107" y2="174.51344" gradientUnits="userSpaceOnUse" id="color-2"><stop offset="0" stop-color="#00b9ff"/><stop offset="1" stop-color="#b4ffe6"/></linearGradient></defs><g transform="translate(-181.27341,-129.5861)"><g data-paper-data="{&quot;isPaintingLayer&quot;:true}" fill="none" fill-rule="nonzero" stroke="#000000" stroke-width="none" stroke-linecap="none" stroke-linejoin="miter" stroke-miterlimit="10" stroke-dasharray="" stroke-dashoffset="0" font-family="none" font-weight="none" font-size="none" text-anchor="none" style="mix-blend-mode: normal"><path d="M238.38246,211.254c-3.2391,11.90624 -11.51286,20.05411 -18.47996,18.19877c-6.9671,-1.85534 -9.98925,-13.01131 -6.75015,-24.91756c3.2391,-11.90624 11.51285,-20.05411 18.47995,-18.19877c6.9671,1.85534 9.98926,13.01132 6.75016,24.91756z" data-paper-data="{&quot;origPos&quot;:null,&quot;origRot&quot;:0,&quot;index&quot;:null}" fill="#fffe00" stroke-width="0.5" stroke-linecap="butt"/><path d="M247.0065,211.7325c-3.2391,-11.90624 -0.21694,-23.06222 6.75016,-24.91756c6.9671,-1.85535 15.24085,6.29253 18.47995,18.19877c3.2391,11.90624 0.21695,23.06222 -6.75015,24.91756c-6.9671,1.85535 -15.24085,-6.29252 -18.47995,-18.19877z" data-paper-data="{&quot;origPos&quot;:null,&quot;origRot&quot;:0,&quot;index&quot;:null}" fill="#fffe00" stroke-width="0.5" stroke-linecap="butt"/><path d="M237.73407,255.41048v-52.73123h10.16786v52.73123z" data-paper-data="{&quot;origPos&quot;:null,&quot;index&quot;:null}" fill="#00ff13" stroke-width="0.5" stroke-linecap="butt"/><path d="M277.83401,174.41013c12.44699,-0.61268 22.82789,4.67034 23.18641,11.79993c0.35852,7.12959 -9.44111,13.40594 -21.8881,14.01862c-12.44698,0.61267 -22.82789,-4.67034 -23.18641,-11.79993c-0.35853,-7.12959 9.44111,-13.40595 21.8881,-14.01863z" data-paper-data="{&quot;origPos&quot;:null,&quot;origRot&quot;:0,&quot;index&quot;:null}" fill="#fffe00" stroke-width="0.5" stroke-linecap="butt"/><path d="M258.03788,183.19269c5.35423,-4.78486 16.46655,-1.24622 24.82005,7.90377c8.3535,9.15 10.78487,20.44644 5.43063,25.2313c-5.35423,4.78485 -16.46656,1.24621 -24.82006,-7.90378c-8.3535,-9.15 -10.78486,-20.44643 -5.43062,-25.23129z" data-paper-data="{&quot;origPos&quot;:null,&quot;origRot&quot;:0,&quot;index&quot;:null}" fill="#fffe00" stroke-width="0.5" stroke-linecap="butt"/><path d="M271.35609,156.78141c10.9901,-5.8137 22.65717,-5.42345 26.05913,0.87164c3.40198,6.29509 -2.74942,16.1112 -13.73951,21.9249c-10.9901,5.8137 -22.65717,5.42345 -26.05913,-0.87164c-3.40197,-6.29509 2.74943,-16.1112 13.73952,-21.9249z" data-paper-data="{&quot;origPos&quot;:null,&quot;origRot&quot;:0,&quot;index&quot;:null}" fill="#fffe00" stroke-width="0.5" stroke-linecap="butt"/><path d="M182.88987,187.85536c-0.01857,-7.13839 10.06911,-12.95093 22.53144,-12.98266c12.46233,-0.03174 22.58011,5.72935 22.59868,12.86774c0.01857,7.13839 -10.06911,12.95093 -22.53144,12.98266c-12.46233,0.03174 -22.58011,-5.72935 -22.59868,-12.86774z" data-paper-data="{&quot;origPos&quot;:null,&quot;origRot&quot;:0,&quot;index&quot;:null}" fill="#fffe00" stroke-width="0.5" stroke-linecap="butt"/><path d="M196.73401,181.18735c-11.15778,-5.49215 -17.59762,-15.12547 -14.38381,-21.51661c3.21381,-6.39114 14.86428,-7.11991 26.02205,-1.62775c11.15778,5.49214 17.59763,15.12547 14.38382,21.51661c-3.21381,6.39113 -14.86429,7.1199 -26.02206,1.62774z" data-paper-data="{&quot;origPos&quot;:null,&quot;origRot&quot;:0,&quot;index&quot;:null}" fill="#fffe00" stroke-width="0.5" stroke-linecap="butt"/><path d="M204.34777,166.56545c-7.67073,-9.71762 -9.27934,-21.15716 -3.59296,-25.55093c5.68639,-4.39377 16.51449,-0.07795 24.18522,9.63966c7.67073,9.71761 9.27935,21.15716 3.59297,25.55093c-5.68638,4.39378 -16.51449,0.07795 -24.18522,-9.63966z" data-paper-data="{&quot;origPos&quot;:null,&quot;origRot&quot;:0,&quot;index&quot;:null}" fill="#fffe00" stroke-width="0.5" stroke-linecap="butt"/><path d="M218.33499,156.15275c-2.70588,-12.03583 0.81001,-23.04927 7.85295,-24.5992c7.04294,-1.54992 14.94591,6.9506 17.65179,18.98645c2.70588,12.03585 -0.81001,23.04929 -7.85295,24.59922c-7.04295,1.54993 -14.94592,-6.95059 -17.6518,-18.98645z" data-paper-data="{&quot;origPos&quot;:null,&quot;origRot&quot;:0,&quot;index&quot;:null}" fill="#fffe00" stroke-width="0.5" stroke-linecap="butt"/><path d="M238.07506,149.5336c2.29216,-12.11963 9.89952,-20.88019 16.99149,-19.56724c7.09198,1.31294 10.98299,12.2022 8.69082,24.32185c-2.29216,12.11964 -9.89952,20.8802 -16.99149,19.56725c-7.09198,-1.31294 -10.98299,-12.2022 -8.69082,-24.32185z" data-paper-data="{&quot;origPos&quot;:null,&quot;origRot&quot;:0,&quot;index&quot;:null}" fill="#fffe00" stroke-width="0.5" stroke-linecap="butt"/><path d="M221.16115,208.84385c-6.91289,10.25918 -17.38352,15.36592 -23.38681,11.40624c-6.00328,-3.95968 -5.26592,-15.48634 1.64696,-25.74551c6.91288,-10.25919 17.38352,-15.36593 23.38681,-11.40625c6.00329,3.95967 5.26592,15.48634 -1.64696,25.74551z" data-paper-data="{&quot;origPos&quot;:null,&quot;origRot&quot;:0,&quot;index&quot;:null}" fill="#fffe00" stroke-width="0.5" stroke-linecap="butt"/><path d="M279.87654,138.11996c6.00328,3.95967 5.26592,15.48633 -1.64696,25.7455c-6.91289,10.25918 -17.38352,15.36593 -23.38681,11.40625c-6.00328,-3.95967 -5.26592,-15.48634 1.64696,-25.74551c6.91289,-10.25918 17.38352,-15.36592 23.38681,-11.40624z" data-paper-data="{&quot;origPos&quot;:null,&quot;origRot&quot;:0,&quot;index&quot;:null}" fill="#fffe00" stroke-width="0.5" stroke-linecap="butt"/><path d="M242.92572,154.18128c18.11466,0 32.79949,11.51225 32.79949,25.71333c0,14.20108 -14.68483,25.71334 -32.79949,25.71334c-18.11466,0 -32.79949,-11.51226 -32.79949,-25.71334c0,-14.20108 14.68484,-25.71333 32.79949,-25.71333z" data-paper-data="{&quot;index&quot;:null}" fill="#b17713" stroke-width="0.5" stroke-linecap="butt"/><path d="M231.39241,170.89026c3.2129,0 5.81746,1.47934 5.81746,3.30418c0,1.82486 -2.60457,3.30419 -5.81746,3.30419c-3.2129,0 -5.81746,-1.47935 -5.81746,-3.30419c0,-1.82485 2.60457,-3.30418 5.81746,-3.30418z" data-paper-data="{&quot;origPos&quot;:null,&quot;index&quot;:null}" fill="url(#color-1)" stroke-width="2" stroke-linecap="butt"/><path d="M258.82194,192.44407c0,0 -3.2882,4.05307 -5.06629,4.38579c-4.20333,0.78653 -7.12273,1.23318 -11.39926,1.33786c-2.98028,0.07294 -9.92519,-1.12618 -11.17331,-1.29647c-1.91727,-0.26159 -4.19347,-3.83478 -4.19347,-3.83478" data-paper-data="{&quot;origPos&quot;:null,&quot;origRot&quot;:0,&quot;index&quot;:null}" fill="none" stroke-width="0.5" stroke-linecap="round"/><path d="M251.66147,238.8745l-7.51405,-9.0863l17.66128,-14.29663l7.51405,9.08631z" data-paper-data="{&quot;origRot&quot;:0,&quot;origPos&quot;:null,&quot;index&quot;:null}" fill="#00ff13" stroke-width="1" stroke-linecap="butt"/><path d="M217.19108,225.11813l6.62185,-7.93817l15.56417,12.4901l-6.62185,7.93814z" data-paper-data="{&quot;origRot&quot;:0,&quot;origPos&quot;:null,&quot;index&quot;:null}" fill="#00ff13" stroke-width="1" stroke-linecap="butt"/><path d="M252.18852,171.20926c3.21289,0 5.81746,1.47933 5.81746,3.30418c0,1.82485 -2.60457,3.30419 -5.81746,3.30419c-3.21289,0 -5.81745,-1.47934 -5.81745,-3.30419c0,-1.82485 2.60456,-3.30418 5.81745,-3.30418z" data-paper-data="{&quot;origPos&quot;:null,&quot;index&quot;:null}" fill="url(#color-2)" stroke-width="2" stroke-linecap="butt"/><path d="M212.08333,296.01047v-34.2h54v34.2z" data-paper-data="{&quot;origPos&quot;:null}" fill="#a30000" stroke-width="1" stroke-linecap="butt"/><path d="M205.48333,263.01047v-24h69.6v24z" data-paper-data="{&quot;origPos&quot;:null}" fill="#a30000" stroke-width="1" stroke-linecap="butt"/></g></g></svg>