<svg version="1.1" xmlns="http://www.w3.org/2000/svg" xmlns:xlink="http://www.w3.org/1999/xlink" width="84.53906" height="123.19592"><g transform="translate(-198.75,-128.5625)"><g data-paper-data="{&quot;isPaintingLayer&quot;:true}" fill="none" fill-rule="nonzero" stroke="none" stroke-width="none" stroke-linecap="butt" stroke-linejoin="miter" stroke-miterlimit="10" stroke-dasharray="" stroke-dashoffset="0" font-family="none" font-weight="none" font-size="none" text-anchor="none" style="mix-blend-mode: normal"><path d="M199,226.8125v-98h84v98z" data-paper-data="{&quot;origPos&quot;:null}" fill="#3200ff" stroke="#000000" stroke-width="0.5"/><path d="M213,224.26046v-34.2h54v34.2z" data-paper-data="{&quot;origPos&quot;:null}" fill="#a30000" stroke="#000000" stroke-width="1"/><path d="M239.74286,168.66046v-17.4h4.08571v17.4z" data-paper-data="{&quot;origPos&quot;:null}" fill="#00ff13" stroke="#000000" stroke-width="1"/><path d="M206.4,191.26046v-24h69.6v24z" data-paper-data="{&quot;origPos&quot;:null}" fill="#a30000" stroke="#000000" stroke-width="1"/><path d="M231.13543,156.13811l3.01934,-3.69031l7.09675,5.80643l-3.01934,3.69031z" data-paper-data="{&quot;origRot&quot;:0,&quot;origPos&quot;:null}" fill="#00ff13" stroke="#000000" stroke-width="1"/><path d="M245.82918,161.43025l-2.66083,-3.224l6.25408,-5.07273l2.66083,3.22401z" data-paper-data="{&quot;origRot&quot;:0,&quot;origPos&quot;:null,&quot;index&quot;:null}" fill="#00ff13" stroke="#000000" stroke-width="1"/><path d="M227.90248,131.12764l1.37105,-1.73398l9.14278,7.22917l-1.37105,1.73398z" data-paper-data="{&quot;origRot&quot;:0,&quot;origPos&quot;:null}" fill="#00ff13" stroke="#000000" stroke-width="1"/><path d="M248.40104,149.62453v-7.97594h11.34355v7.97594z" data-paper-data="{&quot;origPos&quot;:null}" fill="#00ff13" stroke="#000000" stroke-width="1"/><path d="M253.3627,142.80373c0,6.21593 -5.07868,11.25493 -11.34355,11.25493c-6.26487,0 -11.34355,-5.03901 -11.34355,-11.25493c0,-6.21593 5.07868,-11.25493 11.34355,-11.25493c6.26487,0 11.34355,5.03901 11.34355,11.25493z" data-paper-data="{&quot;origPos&quot;:null}" fill="#00ff13" stroke="#000000" stroke-width="1"/><path d="M246.09573,140.23371c0,-0.97888 0.79355,-1.77243 1.77243,-1.77243c0.97888,0 1.77243,0.79355 1.77243,1.77243c0,0.97888 -0.79355,1.77243 -1.77243,1.77243c-0.97888,0 -1.77243,-0.79355 -1.77243,-1.77243z" data-paper-data="{&quot;origPos&quot;:null}" fill="#000000" stroke="none" stroke-width="0.5"/><path d="M262.13738,141.64859c0.83206,0 1.50657,1.78548 1.50657,3.98797c0,2.20249 -0.67451,3.98797 -1.50657,3.98797c-0.83206,0 -1.50657,-1.78548 -1.50657,-3.98797c0,-2.20249 0.67451,-3.98797 1.50657,-3.98797z" data-paper-data="{&quot;origPos&quot;:null}" fill="#00ff13" stroke="#000000" stroke-width="1"/><path d="M260.54219,142.71205c1.12572,0 2.03829,1.26967 2.03829,2.83589c0,1.56622 -0.91257,2.83589 -2.03829,2.83589c-1.12572,0 -2.03829,-1.26967 -2.03829,-2.83589c0,-1.56622 0.91257,-2.83589 2.03829,-2.83589z" data-paper-data="{&quot;origPos&quot;:null}" fill="#00ff13" stroke="#000000" stroke-width="1"/><path d="M260.27632,143.24378c1.85988,0 3.36762,1.0316 3.36762,2.30416c0,1.27256 -1.50774,2.30416 -3.36762,2.30416c-1.85988,0 -3.36762,-1.0316 -3.36762,-2.30416c0,-1.27256 1.50774,-2.30416 3.36762,-2.30416z" data-paper-data="{&quot;origPos&quot;:null}" fill="#00ff13" stroke="#000000" stroke-width="0"/><text transform="translate(199,245.50842) scale(0.5,0.5)" font-size="40" xml:space="preserve" data-paper-data="{&quot;origPos&quot;:null}" fill="#ffffff" fill-rule="nonzero" stroke="none" stroke-width="1" stroke-linecap="butt" stroke-linejoin="miter" stroke-miterlimit="10" stroke-dasharray="" stroke-dashoffset="0" font-family="Sans Serif" font-weight="normal" text-anchor="start" style="mix-blend-mode: normal"><tspan x="0" dy="0">250 Euro</tspan></text></g></g></svg>