<svg version="1.1" xmlns="http://www.w3.org/2000/svg" xmlns:xlink="http://www.w3.org/1999/xlink" width="352.52537" height="297.33455" viewBox="0,0,352.52537,297.33455"><defs><radialGradient cx="361.35255" cy="172.22673" r="17.48125" gradientUnits="userSpaceOnUse" id="color-1"><stop offset="0" stop-color="#7733ff"/><stop offset="1" stop-color="#9966ff"/></radialGradient><radialGradient cx="354.13272" cy="95.22775" r="17.48125" gradientUnits="userSpaceOnUse" id="color-2"><stop offset="0" stop-color="#7733ff"/><stop offset="1" stop-color="#9966ff"/></radialGradient><radialGradient cx="359.1195" cy="247.56753" r="17.48125" gradientUnits="userSpaceOnUse" id="color-3"><stop offset="0" stop-color="#7733ff"/><stop offset="1" stop-color="#9966ff"/></radialGradient><linearGradient x1="244" y1="2" x2="244" y2="73.81251" gradientUnits="userSpaceOnUse" id="color-4"><stop offset="0" stop-color="#fff3a0"/><stop offset="1" stop-color="#474747"/></linearGradient><linearGradient x1="248.6771" y1="5.50621" x2="248.6771" y2="69.65721" gradientTransform="translate(-247.47489,-42.53478) scale(1.43881,1.43881)" gradientUnits="userSpaceOnUse" id="color-5"><stop offset="0" stop-color="#9aff00"/><stop offset="1" stop-color="#5500ff"/></linearGradient></defs><g transform="translate(-52.46984,2.28894)"><g data-paper-data="{&quot;isPaintingLayer&quot;:true}" fill="none" fill-rule="nonzero" stroke="none" stroke-width="none" stroke-linecap="none" stroke-linejoin="miter" stroke-miterlimit="10" stroke-dasharray="" stroke-dashoffset="0" font-family="none" font-weight="none" font-size="none" text-anchor="none" style="mix-blend-mode: normal"><path d="M64.57712,87.31298l1.78722,-2.43966l14.30411,8.20279l-1.78722,2.43966z" data-paper-data="{&quot;origPos&quot;:null,&quot;origRot&quot;:0}" fill="#ff0000" stroke="#000000" stroke-width="1" stroke-linecap="butt"/><path d="M82.86435,95.51577l-1.78722,-2.43966l14.30411,-8.20279l1.78722,2.43966z" data-paper-data="{&quot;origPos&quot;:null,&quot;origRot&quot;:0,&quot;index&quot;:null}" fill="#ff0000" stroke="#000000" stroke-width="1" stroke-linecap="butt"/><path d="M78.49946,94.19456v-25.25h5v25.25z" data-paper-data="{&quot;origPos&quot;:null}" fill="#ff0000" stroke="#000000" stroke-width="2" stroke-linecap="butt"/><path d="M56.1751,94.12087l7.87773,-9.10543l2.31494,2.00281l-7.87773,9.10543z" data-paper-data="{&quot;origPos&quot;:null,&quot;origRot&quot;:0}" fill="#ff0000" stroke="#000000" stroke-width="1" stroke-linecap="butt"/><path d="M104.05282,96.37367l-7.87773,-9.10543l2.31494,-2.00281l7.87773,9.10543z" data-paper-data="{&quot;origPos&quot;:null,&quot;origRot&quot;:0,&quot;index&quot;:null}" fill="#ff0000" stroke="#000000" stroke-width="1" stroke-linecap="butt"/><path d="M84.38239,264.25768v-11.25h16v11.25z" data-paper-data="{&quot;origPos&quot;:null}" fill="#ffe900" stroke="#000000" stroke-width="1" stroke-linecap="butt"/><path d="M103.75739,253.00769c1.17361,0 2.125,2.5184 2.125,5.625c0,3.1066 -0.95139,5.625 -2.125,5.625c-1.17361,0 -2.125,-2.5184 -2.125,-5.625c0,-3.1066 0.95139,-5.625 2.125,-5.625z" data-paper-data="{&quot;origPos&quot;:null}" fill="#ffe900" stroke="#000000" stroke-width="1" stroke-linecap="butt"/><path d="M101.50739,254.50769c1.58782,0 2.875,1.79086 2.875,4c0,2.20914 -1.28718,4 -2.875,4c-1.58782,0 -2.875,-1.79086 -2.875,-4c0,-2.20914 1.28718,-4 2.875,-4z" data-paper-data="{&quot;origPos&quot;:null}" fill="#ffe900" stroke="#000000" stroke-width="1" stroke-linecap="butt"/><path d="M101.13239,255.25769c2.62335,0 4.75,1.45507 4.75,3.25c0,1.79493 -2.12665,3.25 -4.75,3.25c-2.62335,0 -4.75,-1.45507 -4.75,-3.25c0,-1.79493 2.12665,-3.25 4.75,-3.25z" data-paper-data="{&quot;origPos&quot;:null}" fill="#ffe900" stroke="#000000" stroke-width="0" stroke-linecap="butt"/><path d="M63.8438,285.27965l1.78722,-2.43966l14.30411,8.20279l-1.78722,2.43966z" data-paper-data="{&quot;origPos&quot;:null,&quot;origRot&quot;:0}" fill="#ffe900" stroke="#000000" stroke-width="1" stroke-linecap="butt"/><path d="M82.13102,293.48242l-1.78722,-2.43966l14.30411,-8.20279l1.78722,2.43966z" data-paper-data="{&quot;origPos&quot;:null,&quot;origRot&quot;:0,&quot;index&quot;:null}" fill="#ffe900" stroke="#000000" stroke-width="1" stroke-linecap="butt"/><path d="M77.76613,292.16122v-25.25h5v25.25z" data-paper-data="{&quot;origPos&quot;:null}" fill="#ffe900" stroke="#000000" stroke-width="2" stroke-linecap="butt"/><path d="M55.44177,292.08753l7.87773,-9.10543l2.31494,2.00281l-7.87773,9.10543z" data-paper-data="{&quot;origPos&quot;:null,&quot;origRot&quot;:0}" fill="#ffe900" stroke="#000000" stroke-width="1" stroke-linecap="butt"/><path d="M103.3195,294.34034l-7.87773,-9.10543l2.31494,-2.00281l7.87773,9.10543z" data-paper-data="{&quot;origPos&quot;:null,&quot;origRot&quot;:0,&quot;index&quot;:null}" fill="#ffe900" stroke="#000000" stroke-width="1" stroke-linecap="butt"/><path d="M61.57714,199.813l1.78722,-2.43966l14.30411,8.20279l-1.78722,2.43966z" data-paper-data="{&quot;origPos&quot;:null,&quot;origRot&quot;:0,&quot;index&quot;:null}" fill="#5dd100" stroke="#000000" stroke-width="1" stroke-linecap="butt"/><path d="M79.86436,208.01578l-1.78722,-2.43966l14.30411,-8.20279l1.78722,2.43966z" data-paper-data="{&quot;origPos&quot;:null,&quot;origRot&quot;:0,&quot;index&quot;:null}" fill="#5dd100" stroke="#000000" stroke-width="1" stroke-linecap="butt"/><path d="M75.49947,206.69456v-25.25h5v25.25z" data-paper-data="{&quot;origPos&quot;:null,&quot;index&quot;:null}" fill="#5dd100" stroke="#000000" stroke-width="2" stroke-linecap="butt"/><path d="M53.17511,206.62087l7.87773,-9.10543l2.31494,2.00281l-7.87773,9.10543z" data-paper-data="{&quot;origPos&quot;:null,&quot;origRot&quot;:0,&quot;index&quot;:null}" fill="#5dd100" stroke="#000000" stroke-width="1" stroke-linecap="butt"/><path d="M101.05283,208.87368l-7.87773,-9.10543l2.31494,-2.00281l7.87773,9.10543z" data-paper-data="{&quot;origPos&quot;:null,&quot;origRot&quot;:0,&quot;index&quot;:null}" fill="#5dd100" stroke="#000000" stroke-width="1" stroke-linecap="butt"/><path d="M375.33807,172.20975l28.15714,0.78214" data-paper-data="{&quot;origPos&quot;:null}" fill="none" stroke="#000000" stroke-width="3" stroke-linecap="round"/><path d="M350.23509,184.422v9" data-paper-data="{&quot;origPos&quot;:null}" fill="none" stroke="#000000" stroke-width="2" stroke-linecap="round"/><path d="M364.56838,193.42201v-10.33334" data-paper-data="{&quot;origPos&quot;:null}" fill="none" stroke="#000000" stroke-width="2" stroke-linecap="round"/><path d="M356.81043,156.422c11.64842,0 21.09133,6.81471 21.09133,15.22109c0,8.40637 -9.44291,15.22109 -21.09133,15.22109c-11.64842,0 -21.09133,-6.81471 -21.09133,-15.22109c0,-8.40638 9.44291,-15.22109 21.09133,-15.22109z" data-paper-data="{&quot;origPos&quot;:null}" fill="#000000" stroke="#000000" stroke-width="2" stroke-linecap="butt"/><path d="M378.8338,172.09438c0,8.3855 -9.56433,15.18329 -21.36253,15.18329c-5.16703,0 -9.90561,-1.30383 -13.59997,-3.47383c0.34991,0.03704 0.7052,0.05604 1.06493,0.05604c0.85306,0 1.68118,-0.10682 2.4717,-0.3078c0.79052,0.20099 1.61864,0.3078 2.4717,0.3078c2.17275,0 4.18366,-0.69294 5.82378,-1.86988c1.78887,-0.56164 3.36117,-1.61241 4.56017,-2.99559c2.47296,-1.56978 4.20634,-4.29146 4.20634,-8.31243c0,-3.35927 -2.70659,-6.29542 -5,-8.75c-0.97192,-1.04021 -2.75139,-0.73718 -4.14332,-1.03583c-0.75317,-0.26576 -1.54772,-0.44387 -2.37137,-0.52207c-0.50292,-0.08349 -1.00808,-0.13129 -1.51603,-0.10751c-0.43583,0.02041 -0.84569,0.09723 -1.23326,0.22247c-0.0104,0.00188 -0.0208,0.00378 -0.03119,0.0057c0.44714,-0.39852 0.85825,-0.83658 1.22785,-1.30872c0.22726,-0.13336 0.44877,-0.27544 0.6641,-0.42578c0.15473,-0.01185 0.30848,-0.02723 0.46117,-0.04605c0.40495,0.04991 0.8174,0.07561 1.23585,0.07561c1.30784,0 2.55706,-0.25106 3.70206,-0.70763c1.4251,-0.0239 2.77763,-0.34591 3.99793,-0.90637c9.89008,1.32887 17.37009,7.50287 17.37009,14.91858z" data-paper-data="{&quot;origPos&quot;:null}" fill="url(#color-1)" stroke="#000000" stroke-width="2" stroke-linecap="butt"/><path d="M356.06838,168.422c0,1.38071 -1.11929,2.5 -2.5,2.5c-0.53515,0 -1.03103,-0.16815 -1.43768,-0.45449c-0.10363,-0.03356 -0.2043,-0.07371 -0.30151,-0.11995c-0.16878,0.20409 -0.36936,0.38092 -0.59414,0.52292c-0.3859,0.24377 -0.84314,0.38485 -1.33333,0.38485c-0.11302,0 -0.22429,-0.0075 -0.33333,-0.02203c-0.10905,0.01453 -0.22031,0.02203 -0.33333,0.02203c-0.10781,0 -0.21402,-0.00682 -0.31824,-0.02006c-0.15028,0.20428 -0.33088,0.38488 -0.53516,0.53516c0.01324,0.10421 0.02006,0.21043 0.02006,0.31824c0,1.38071 -1.11929,2.5 -2.5,2.5c-1.32667,0 -2.41199,-1.03339 -2.49491,-2.33914c-0.05675,0.00385 -0.11403,0.00581 -0.17176,0.00581c-1.38071,0 -2.5,-1.11929 -2.5,-2.5c0,-1.21043 0.86023,-2.21995 2.0027,-2.45054c0.06121,-1.3263 1.15588,-2.3828 2.4973,-2.3828c0.19489,0 0.38458,0.0223 0.56664,0.06449c0.44505,-0.44451 1.05682,-0.72212 1.73343,-0.73094c0.44607,-0.41385 1.04345,-0.66688 1.69992,-0.66688c0.28995,0 0.56838,0.04936 0.82733,0.14014c0.45686,-0.49604 1.11181,-0.80681 1.83934,-0.80681c1.38071,0 2.5,1.11929 2.5,2.5c0,0.21113 -0.02617,0.41614 -0.07545,0.61197c0.00439,0.00305 0.00876,0.00611 0.01313,0.00918c1.00341,0.32498 1.72899,1.26718 1.72899,2.37885z" data-paper-data="{&quot;origPos&quot;:null}" fill="#ff0000" stroke="none" stroke-width="0.5" stroke-linecap="butt"/><path d="M357.23503,157.08865l0.33334,-10l-22.33334,-0.33333l45.33334,0.66667" data-paper-data="{&quot;origPos&quot;:null}" fill="none" stroke="#000000" stroke-width="2" stroke-linecap="round"/><path d="M368.17951,193.75534l-22.22222,-0.33333l-2.15724,-1.54071" data-paper-data="{&quot;origPos&quot;:null}" fill="none" stroke="#000000" stroke-width="2" stroke-linecap="round"/><path d="M342.80131,169.14464c0,-1.38071 1.11929,-2.5 2.5,-2.5c1.38071,0 2.5,1.11929 2.5,2.5c0,1.38071 -1.11929,2.5 -2.5,2.5c-1.38071,0 -2.5,-1.11929 -2.5,-2.5z" data-paper-data="{&quot;origPos&quot;:null}" fill="#7733ff" stroke="none" stroke-width="0.5" stroke-linecap="butt"/><path d="M402.32198,159.891l-0.39107,26.00625" data-paper-data="{&quot;origPos&quot;:null}" fill="none" stroke="#000000" stroke-width="3" stroke-linecap="round"/><path d="M344.60465,160.40184l10.32304,12.58428" data-paper-data="{&quot;origPos&quot;:null}" fill="none" stroke="#000000" stroke-width="2" stroke-linecap="round"/><path d="M348.24789,167.48137c0,1.56584 -1.24398,2.83521 -2.7785,2.83521c-1.53452,0 -2.7785,-1.26936 -2.7785,-2.83521c0,-1.56584 1.24398,-2.83521 2.7785,-2.83521c1.53452,0 2.7785,1.26936 2.7785,2.83521z" data-paper-data="{&quot;origPos&quot;:null}" fill="#ff0000" stroke="none" stroke-width="0" stroke-linecap="butt"/><path d="M347.94723,162.051c1.74036,-1.79475 3.53512,-0.05439 3.53512,-0.05439l-0.20555,-0.05686c2.88275,1.55225 4.52242,3.37184 6.3131,6.05787c0,0 1.38675,2.08013 -0.69338,3.46688c-2.08013,1.38675 -3.46688,-0.69338 -3.46688,-0.69338c-1.37093,-2.0564 -2.39992,-3.28563 -4.52335,-4.42902l-0.90468,-0.75599c0,0 -1.79475,-1.74036 -0.05439,-3.53512z" data-paper-data="{&quot;origPos&quot;:null}" fill="#000000" stroke="none" stroke-width="0.5" stroke-linecap="butt"/><path d="M354.47137,167.63655l-11.72065,9.61299" data-paper-data="{&quot;origPos&quot;:null}" fill="none" stroke="#000000" stroke-width="2" stroke-linecap="round"/><path d="M346.7707,176.89997l-7.34083,-8.03995l8.06867,-6.29214" data-paper-data="{&quot;origPos&quot;:null}" fill="none" stroke="#000000" stroke-width="2" stroke-linecap="round"/><path d="M355.18892,159.15964c0,-0.04826 1.60417,-0.08739 3.58302,-0.08739c1.97885,0 3.58302,0.03913 3.58302,0.08739c0,0.04826 -1.60417,0.08739 -3.58302,0.08739c-1.97885,0 -3.58302,-0.03913 -3.58302,-0.08739z" data-paper-data="{&quot;origPos&quot;:null}" fill="none" stroke="#9966ff" stroke-width="2" stroke-linecap="butt"/><path d="M355.18892,159.15965c0,-0.04826 1.60417,-0.08739 3.58302,-0.08739c1.97885,0 3.58302,0.03913 3.58302,0.08739c0,0.04826 -1.60417,0.08739 -3.58302,0.08739c-1.97885,0 -3.58302,-0.03913 -3.58302,-0.08739z" data-paper-data="{&quot;origPos&quot;:null}" fill="none" stroke="#915aff" stroke-width="2" stroke-linecap="butt"/><path d="M367.64012,91.60211l27.4052,-6.51085" data-paper-data="{&quot;origPos&quot;:null,&quot;origRot&quot;:0}" fill="none" stroke="#000000" stroke-width="3" stroke-linecap="round"/><path d="M346.53908,109.87901l2.32263,8.69514" data-paper-data="{&quot;origPos&quot;:null,&quot;origRot&quot;:0}" fill="none" stroke="#000000" stroke-width="2" stroke-linecap="round"/><path d="M362.70948,114.87517l-2.66672,-9.98331" data-paper-data="{&quot;origPos&quot;:null,&quot;origRot&quot;:0}" fill="none" stroke="#000000" stroke-width="2" stroke-linecap="round"/><path d="M345.66575,81.13053c11.25385,-3.0061 22.13556,1.14085 24.30498,9.26247c2.16942,8.12162 -5.19494,17.14242 -16.44879,20.14852c-11.25385,3.0061 -22.13556,-1.14084 -24.30499,-9.26247c-2.16943,-8.12162 5.19495,-17.14243 16.4488,-20.14853z" data-paper-data="{&quot;origPos&quot;:null,&quot;origRot&quot;:0}" fill="#000000" stroke="#000000" stroke-width="2" stroke-linecap="butt"/><path d="M370.98766,90.58851c2.16404,8.10146 -5.32201,17.13724 -16.72056,20.18199c-4.99201,1.33346 -9.90654,1.29668 -14.03577,0.15358c0.34762,-0.05451 0.69577,-0.12785 1.04332,-0.22069c0.82416,-0.22015 1.59667,-0.53707 2.30854,-0.93525c0.81561,-0.00983 1.64324,-0.12034 2.4674,-0.34049c2.09915,-0.56072 3.86312,-1.74914 5.14395,-3.30948c1.58333,-1.00427 2.8312,-2.42521 3.63263,-4.07096c1.98408,-2.1548 2.95636,-5.23162 1.91867,-9.11638c-0.86692,-3.24548 -4.23956,-5.38369 -7.08874,-7.16326c-1.20745,-0.75415 -2.84843,-0.00215 -4.27029,0.06853c-0.79624,-0.06239 -1.60985,-0.02942 -2.42577,0.10759c-0.50743,0.04913 -1.00782,0.13331 -1.49242,0.28737c-0.4158,0.13219 -0.79195,0.31218 -1.13407,0.5332c-0.00957,0.0045 -0.01911,0.00902 -0.02866,0.01356c0.32915,-0.50042 0.61328,-1.02973 0.84852,-1.58126c0.18514,-0.18749 0.36248,-0.38192 0.53172,-0.58274c0.14643,-0.05138 0.29101,-0.10592 0.43367,-0.16351c0.40411,-0.05629 0.80923,-0.1379 1.2135,-0.24589c1.26354,-0.33751 2.40565,-0.90246 3.39404,-1.63905c1.37066,-0.39087 2.59427,-1.05101 3.6286,-1.90741c9.89801,-1.26847 18.71796,2.76603 20.63173,9.93054z" data-paper-data="{&quot;origPos&quot;:null,&quot;origRot&quot;:0}" fill="url(#color-2)" stroke="#000000" stroke-width="2" stroke-linecap="butt"/><path d="M348.04566,92.9156c0.35632,1.33394 -0.4362,2.70417 -1.77014,3.06049c-0.51702,0.1381 -1.0395,0.10362 -1.50627,-0.06807c-0.10878,-0.00568 -0.21641,-0.01849 -0.32225,-0.03808c-0.11039,0.24074 -0.25854,0.46334 -0.43906,0.65854c-0.30992,0.3351 -0.71526,0.5894 -1.18885,0.71591c-0.10919,0.02917 -0.21863,0.05064 -0.32773,0.06474c-0.10161,0.04218 -0.20716,0.07814 -0.31635,0.1073c-0.10416,0.02782 -0.20853,0.04864 -0.31264,0.06275c-0.09247,0.23614 -0.22035,0.45723 -0.37892,0.65514c0.03969,0.09726 0.07369,0.19812 0.10151,0.30228c0.35632,1.33394 -0.4362,2.70417 -1.77014,3.06049c-1.28173,0.34238 -2.59698,-0.37592 -3.01406,-1.61604c-0.05383,0.01837 -0.10867,0.03504 -0.16445,0.04994c-1.33394,0.35632 -2.70417,-0.4362 -3.06049,-1.77014c-0.31237,-1.16943 0.2582,-2.36675 1.30246,-2.88437c-0.28314,-1.29717 0.5018,-2.60038 1.79778,-2.94656c0.18829,-0.0503 0.3773,-0.0777 0.56408,-0.08393c0.31526,-0.5443 0.83467,-0.97039 1.48608,-1.15353c0.32416,-0.51495 0.83601,-0.91357 1.47024,-1.08299c0.28013,-0.07483 0.56187,-0.099 0.83547,-0.07812c0.31337,-0.59714 0.86594,-1.0664 1.56882,-1.25415c1.33394,-0.35632 2.70417,0.4362 3.06049,1.77014c0.05448,0.20398 0.08211,0.4088 0.08504,0.61071c0.00503,0.00181 0.01004,0.00364 0.01505,0.00548c1.05329,0.05502 1.99744,0.77805 2.28433,1.85207z" data-paper-data="{&quot;origPos&quot;:null,&quot;origRot&quot;:0}" fill="#ff0000" stroke="none" stroke-width="0.5" stroke-linecap="butt"/><path d="M346.24801,81.66505l-2.25865,-9.74729l-21.66285,5.44151l43.96978,-11.05506" data-paper-data="{&quot;origPos&quot;:null,&quot;origRot&quot;:0}" fill="none" stroke="#000000" stroke-width="2" stroke-linecap="round"/><path d="M366.28431,114.26528l-21.5555,5.41284l-2.48178,-0.9318" data-paper-data="{&quot;origPos&quot;:null,&quot;origRot&quot;:0}" fill="none" stroke="#000000" stroke-width="2" stroke-linecap="round"/><path d="M335.41449,97.03757c-0.35632,-1.33394 0.4362,-2.70417 1.77014,-3.06049c1.33394,-0.35632 2.70417,0.43621 3.06049,1.77014c0.35632,1.33394 -0.4362,2.70417 -1.77014,3.06049c-1.33394,0.35632 -2.70417,-0.43621 -3.06049,-1.77014z" data-paper-data="{&quot;origPos&quot;:null,&quot;origRot&quot;:0}" fill="#7733ff" stroke="none" stroke-width="0.5" stroke-linecap="butt"/><path d="M396.86449,97.96317l-6.3336,-25.22625" data-paper-data="{&quot;origPos&quot;:null,&quot;origRot&quot;:0}" fill="none" stroke="#000000" stroke-width="3" stroke-linecap="round"/><path d="M348.12146,97.61949l-13.22098,-9.49394" data-paper-data="{&quot;origPos&quot;:null,&quot;origRot&quot;:0}" fill="none" stroke="#000000" stroke-width="2" stroke-linecap="round"/><path d="M338.55544,88.85622c1.21823,-2.18309 3.40134,-0.96485 3.40134,-0.96485l-0.21326,-0.00189c3.18569,0.75572 5.2394,2.09052 7.6626,4.22345c0,0 1.8766,1.65179 0.22481,3.52839c-1.65179,1.87659 -3.52838,0.2248 -3.52838,0.2248c-1.85519,-1.63295 -3.16655,-2.55499 -5.51313,-3.11165l-1.06913,-0.49691c0,0 -2.18309,-1.21824 -0.96485,-3.40134z" data-paper-data="{&quot;origPos&quot;:null,&quot;origRot&quot;:0}" fill="#000000" stroke="none" stroke-width="0.5" stroke-linecap="butt"/><path d="M346.30005,92.56889l-8.84281,12.31211" data-paper-data="{&quot;origPos&quot;:null,&quot;origRot&quot;:0}" fill="none" stroke="#000000" stroke-width="2" stroke-linecap="round"/><path d="M341.25084,103.50583l-9.16703,-5.87316l6.17155,-8.16128" data-paper-data="{&quot;origPos&quot;:null,&quot;origRot&quot;:0}" fill="none" stroke="#000000" stroke-width="2" stroke-linecap="round"/><path d="M344.80566,84.19395c-0.01245,-0.04663 1.52728,-0.49842 3.4391,-1.0091c1.91182,-0.51068 3.47175,-0.88687 3.4842,-0.84024c0.01245,0.04663 -1.52728,0.49842 -3.4391,1.0091c-1.91182,0.51068 -3.47175,0.88686 -3.48421,0.84024z" data-paper-data="{&quot;origPos&quot;:null,&quot;origRot&quot;:0}" fill="none" stroke="#9966ff" stroke-width="2" stroke-linecap="butt"/><path d="M344.80567,84.19396c-0.01245,-0.04663 1.52727,-0.49842 3.43909,-1.0091c1.91182,-0.51068 3.47175,-0.88687 3.48421,-0.84024c0.01245,0.04663 -1.52728,0.49842 -3.4391,1.0091c-1.91182,0.51068 -3.47174,0.88687 -3.4842,0.84024z" data-paper-data="{&quot;origPos&quot;:null,&quot;origRot&quot;:0}" fill="none" stroke="#915aff" stroke-width="2" stroke-linecap="butt"/><path d="M372.82014,250.376l27.41869,6.45383" data-paper-data="{&quot;origPos&quot;:null,&quot;origRot&quot;:0}" fill="none" stroke="#000000" stroke-width="3" stroke-linecap="round"/><path d="M343.94973,266.08011l1.81802,-8.81447" data-paper-data="{&quot;origPos&quot;:null,&quot;origRot&quot;:0}" fill="none" stroke="#000000" stroke-width="2" stroke-linecap="round"/><path d="M357.98754,268.97547l2.08736,-10.12032" data-paper-data="{&quot;origPos&quot;:null,&quot;origRot&quot;:0}" fill="none" stroke="#000000" stroke-width="2" stroke-linecap="round"/><path d="M357.86361,231.1711c11.40829,2.35301 19.27994,10.93473 17.58184,19.16781c-1.69811,8.23307 -12.32294,12.99982 -23.73123,10.64681c-11.40829,-2.35301 -19.27994,-10.93473 -17.58184,-19.16781c1.69811,-8.23308 12.32294,-12.99982 23.73123,-10.64681z" data-paper-data="{&quot;origPos&quot;:null,&quot;origRot&quot;:0}" fill="#000000" stroke="#000000" stroke-width="2" stroke-linecap="butt"/><path d="M376.26711,250.96916c-1.69389,8.21263 -12.43422,12.93827 -23.9892,10.555c-5.06051,-1.04375 -9.43803,-3.27791 -12.61788,-6.14944c0.33521,0.10696 0.67934,0.19734 1.03166,0.27c0.83547,0.17232 1.6681,0.23498 2.48292,0.19783c0.73362,0.35653 1.5231,0.62842 2.35857,0.80074c2.12796,0.4389 4.23739,0.16645 6.08144,-0.65491c1.86545,-0.18871 3.61759,-0.90021 5.07128,-2.01267c2.73908,-1.03788 4.98651,-3.3533 5.79876,-7.29138c0.67858,-3.29002 -1.3791,-6.71238 -3.1294,-9.57963c-0.74176,-1.2151 -2.54576,-1.27777 -3.84867,-1.85144c-0.68396,-0.41242 -1.42615,-0.74736 -2.21702,-0.99033c-0.47569,-0.18336 -0.96078,-0.33222 -1.46306,-0.41154c-0.43097,-0.06805 -0.8479,-0.07561 -1.25278,-0.03124c-0.01057,-0.00026 -0.02113,-0.0005 -0.0317,-0.00072c0.51842,-0.29998 1.00955,-0.64597 1.4669,-1.03371c0.24951,-0.0847 0.49516,-0.17911 0.73642,-0.28285c0.15393,0.01965 0.30762,0.03565 0.46097,0.04806c0.38652,0.13068 0.78528,0.23917 1.1951,0.3237c1.28088,0.26419 2.55506,0.27065 3.76869,0.05478c1.40055,0.26447 2.79024,0.22231 4.0986,-0.08009c9.41776,3.2993 15.49641,10.857 13.99842,18.11983z" data-paper-data="{&quot;origPos&quot;:null,&quot;origRot&quot;:0}" fill="url(#color-3)" stroke="#000000" stroke-width="2" stroke-linecap="butt"/><path d="M354.71283,242.77383c-0.27891,1.35225 -1.60122,2.22236 -2.95347,1.94346c-0.52412,-0.1081 -0.97581,-0.37295 -1.31623,-0.73554c-0.09471,-0.0538 -0.1852,-0.11346 -0.27106,-0.17838c-0.20653,0.16579 -0.43869,0.29846 -0.68752,0.39212c-0.42719,0.16079 -0.9035,0.2066 -1.38358,0.10758c-0.11069,-0.02283 -0.21815,-0.05265 -0.32201,-0.08891c-0.10974,-0.0078 -0.22022,-0.02293 -0.33091,-0.04576c-0.10559,-0.02178 -0.20823,-0.04991 -0.30763,-0.08393c-0.18845,0.16971 -0.40181,0.31011 -0.63223,0.41602c-0.00808,0.10474 -0.02286,0.21014 -0.04464,0.31573c-0.27891,1.35225 -1.60122,2.22236 -2.95347,1.94346c-1.29932,-0.26799 -2.15352,-1.49931 -1.97097,-2.7949c-0.05636,-0.00769 -0.11285,-0.01734 -0.16939,-0.02901c-1.35225,-0.27891 -2.22236,-1.60122 -1.94346,-2.95347c0.24451,-1.18548 1.29093,-2.00042 2.45643,-1.99547c0.32786,-1.28659 1.61338,-2.10019 2.92715,-1.82922c0.19087,0.03937 0.37215,0.09953 0.54193,0.17762c0.52567,-0.34545 1.1809,-0.49375 1.84535,-0.36571c0.52047,-0.31521 1.15665,-0.44235 1.79959,-0.30974c0.28397,0.05857 0.54669,0.16316 0.78197,0.30437c0.54764,-0.39353 1.25187,-0.56559 1.9644,-0.41863c1.35225,0.27891 2.22236,1.60122 1.94346,2.95347c-0.04265,0.20678 -0.10969,0.40227 -0.19751,0.58411c0.00368,0.00387 0.00735,0.00775 0.011,0.01164c0.91708,0.52097 1.43737,1.59032 1.21281,2.67907z" data-paper-data="{&quot;origPos&quot;:null,&quot;origRot&quot;:0}" fill="#ff0000" stroke="none" stroke-width="0.5" stroke-linecap="butt"/><path d="M358.14479,231.90979l2.34649,-9.72651l-21.80561,-4.83785l44.26413,9.81037" data-paper-data="{&quot;origPos&quot;:null,&quot;origRot&quot;:0}" fill="none" stroke="#000000" stroke-width="2" stroke-linecap="round"/><path d="M361.45689,270.03138l-21.69678,-4.8154l-1.80154,-1.94472" data-paper-data="{&quot;origPos&quot;:null,&quot;origRot&quot;:0}" fill="none" stroke="#000000" stroke-width="2" stroke-linecap="round"/><path d="M341.57329,240.80158c0.27891,-1.35225 1.60122,-2.22236 2.95347,-1.94346c1.35225,0.27891 2.22236,1.60122 1.94346,2.95347c-0.27891,1.35225 -1.60122,2.22236 -2.95347,1.94346c-1.35225,-0.27891 -2.22236,-1.60122 -1.94346,-2.95347z" data-paper-data="{&quot;origPos&quot;:null,&quot;origRot&quot;:0}" fill="#7733ff" stroke="none" stroke-width="0.5" stroke-linecap="butt"/><path d="M401.7362,243.76203l-5.63633,25.39113" data-paper-data="{&quot;origPos&quot;:null,&quot;origRot&quot;:0}" fill="none" stroke="#000000" stroke-width="3" stroke-linecap="round"/><path d="M345.10551,232.6033l7.56818,14.41013" data-paper-data="{&quot;origPos&quot;:null,&quot;origRot&quot;:0}" fill="none" stroke="#000000" stroke-width="2" stroke-linecap="round"/><path d="M348.04606,234.89367c2.06703,-1.40619 3.47323,0.66083 3.47323,0.66083l-0.18983,-0.09721c2.50976,2.10257 3.74807,4.21587 4.95925,7.20825c0,0 0.93797,2.31738 -1.3794,3.25535c-2.31738,0.93797 -3.25535,-1.3794 -3.25535,-1.3794c-0.92727,-2.29094 -1.68674,-3.70269 -3.53543,-5.25144l-0.73332,-0.92315c0,0 -1.40619,-2.06703 0.66083,-3.47323z" data-paper-data="{&quot;origPos&quot;:null,&quot;origRot&quot;:0}" fill="#000000" stroke="none" stroke-width="0.5" stroke-linecap="butt"/><path d="M339.88653,248.72919l13.42088,-7.04722" data-paper-data="{&quot;origPos&quot;:null,&quot;origRot&quot;:0}" fill="none" stroke="#000000" stroke-width="2" stroke-linecap="round"/><path d="M343.89425,249.19886l-5.56541,-9.35707l9.17336,-4.53254" data-paper-data="{&quot;origPos&quot;:null,&quot;origRot&quot;:0}" fill="none" stroke="#000000" stroke-width="2" stroke-linecap="round"/><path d="M355.72252,233.52476c0.00975,-0.04727 1.58875,0.23846 3.52681,0.63819c1.93806,0.39973 3.50125,0.7621 3.4915,0.80937c-0.00975,0.04727 -1.58875,-0.23846 -3.52681,-0.63819c-1.93806,-0.39973 -3.50125,-0.7621 -3.4915,-0.80937z" data-paper-data="{&quot;origPos&quot;:null,&quot;origRot&quot;:0}" fill="none" stroke="#9966ff" stroke-width="2" stroke-linecap="butt"/><path d="M355.72252,233.52477c0.00975,-0.04727 1.58875,0.23846 3.52681,0.63819c1.93806,0.39973 3.50125,0.7621 3.4915,0.80937c-0.00975,0.04727 -1.58875,-0.23846 -3.52681,-0.63819c-1.93806,-0.39973 -3.50125,-0.7621 -3.4915,-0.80937z" data-paper-data="{&quot;origPos&quot;:null,&quot;origRot&quot;:0}" fill="none" stroke="#915aff" stroke-width="2" stroke-linecap="butt"/><path d="M54.5828,153.83289l1.90028,-2.47194l13.03386,10.01966l-1.90028,2.47194z" data-paper-data="{&quot;origRot&quot;:0,&quot;origPos&quot;:null}" fill="#5dd100" stroke="#000000" stroke-width="1" stroke-linecap="butt"/><path d="M84.99697,180.92034l-0.15362,-11.24895l15.99851,-0.21848l0.15361,11.24895z" data-paper-data="{&quot;origPos&quot;:null,&quot;origRot&quot;:0}" fill="#5dd100" stroke="#000000" stroke-width="1" stroke-linecap="butt"/><path d="M91.86333,171.20499c0.11971,8.7667 -6.94601,15.97134 -15.78174,16.09199c-8.83573,0.12065 -16.09556,-6.88835 -16.21528,-15.65505c-0.11971,-8.7667 6.94601,-15.97134 15.78174,-16.092c8.83574,-0.12065 16.09556,6.88835 16.21528,15.65505z" data-paper-data="{&quot;origPos&quot;:null,&quot;origRot&quot;:0}" fill="#5dd100" stroke="#000000" stroke-width="2" stroke-linecap="butt"/><path d="M82.29515,166.16799c-0.09218,-0.88106 0.8746,-1.32922 2.15934,-1.00102c1.28473,0.32821 2.40092,1.30852 2.49309,2.18959c0.09218,0.88106 -0.8746,1.32923 -2.15933,1.00103c-1.28473,-0.32821 -2.40093,-1.30852 -2.49309,-2.18959z" data-paper-data="{&quot;origPos&quot;:null,&quot;origRot&quot;:0}" fill="#000000" stroke="none" stroke-width="0.5" stroke-linecap="butt"/><path d="M104.21655,169.40683c1.17351,-0.01603 2.15919,2.48914 2.20161,5.59545c0.04242,3.10631 -0.87449,5.63747 -2.048,5.65349c-1.17351,0.01603 -2.15919,-2.48914 -2.20161,-5.59545c-0.04242,-3.10631 0.87449,-5.63747 2.048,-5.65349z" data-paper-data="{&quot;origPos&quot;:null,&quot;origRot&quot;:0}" fill="#5dd100" stroke="#000000" stroke-width="1" stroke-linecap="butt"/><path d="M101.98724,170.9374c1.58768,-0.02168 2.89919,1.75144 2.92935,3.96037c0.03016,2.20893 -1.23244,4.0172 -2.82012,4.03888c-1.58768,0.02168 -2.89919,-1.75144 -2.92935,-3.96036c-0.03016,-2.20893 1.23244,-4.0172 2.82012,-4.03889z" data-paper-data="{&quot;origPos&quot;:null,&quot;origRot&quot;:0}" fill="#5dd100" stroke="#000000" stroke-width="1" stroke-linecap="butt"/><path d="M101.62251,171.69247c2.6231,-0.03582 4.76942,1.39007 4.79394,3.18483c0.02451,1.79476 -2.08208,3.27874 -4.70518,3.31456c-2.6231,0.03582 -4.76942,-1.39007 -4.79394,-3.18483c-0.02451,-1.79476 2.08208,-3.27874 4.70518,-3.31456z" data-paper-data="{&quot;origPos&quot;:null,&quot;origRot&quot;:0}" fill="#5dd100" stroke="#000000" stroke-width="0" stroke-linecap="butt"/><path d="M278.50001,172.9141c0,4.38376 -3.66567,7.9375 -8.1875,7.9375c-4.52183,0 -8.1875,-3.55374 -8.1875,-7.9375c0,-4.38376 3.66567,-7.9375 8.1875,-7.9375c4.52183,0 8.1875,3.55374 8.1875,7.9375z" data-paper-data="{&quot;origPos&quot;:null}" fill="#00ff33" stroke="#000000" stroke-width="1" stroke-linecap="butt"/><path d="M277.54817,169.64189c0.72131,1.35245 -0.39668,2.49501 -1.90767,1.77038c-0.72508,-0.34773 -1.27163,-1.85787 -2.00207,-2.38435c-0.84559,-0.60947 -1.81368,-0.54973 -2.62434,-1.09017c-0.65028,-0.04414 -1.16408,-0.58562 -1.16408,-1.24709c0,-0.67638 0.53722,-1.22729 1.20824,-1.24932c2.0447,-0.42648 5.73101,2.77761 6.48991,4.20054z" data-paper-data="{&quot;origPos&quot;:null}" fill="#ffffff" stroke="none" stroke-width="0.5" stroke-linecap="butt"/><path d="M56.37791,235.68455l1.93386,-2.44576l12.89582,10.19669l-1.93386,2.44576z" data-paper-data="{&quot;origRot&quot;:0,&quot;origPos&quot;:null}" fill="#ffe900" stroke="#000000" stroke-width="1" stroke-linecap="butt"/><path d="M93.41775,253.56408c0,8.76752 -7.16344,15.875 -16,15.875c-8.83656,0 -16,-7.10748 -16,-15.875c0,-8.76752 7.16344,-15.875 16,-15.875c8.83656,0 16,7.10748 16,15.875z" data-paper-data="{&quot;origPos&quot;:null}" fill="#ffe900" stroke="#000000" stroke-width="2" stroke-linecap="butt"/><path d="M83.37054,248.72198c0.3436,-0.80026 1.65065,-1.00741 2.91935,-0.46267c1.26871,0.54474 2.01866,1.63508 1.67505,2.43534c-0.3436,0.80026 -1.65065,1.00741 -2.91935,0.46267c-1.26871,-0.54474 -2.01866,-1.63508 -1.67505,-2.43534z" data-paper-data="{&quot;origPos&quot;:null,&quot;origRot&quot;:0}" fill="#000000" stroke="none" stroke-width="0.5" stroke-linecap="butt"/><path d="M188.00001,173.9141c0,4.38376 -3.66567,7.9375 -8.1875,7.9375c-4.52183,0 -8.1875,-3.55374 -8.1875,-7.9375c0,-4.38376 3.66567,-7.9375 8.1875,-7.9375c4.52183,0 8.1875,3.55374 8.1875,7.9375z" data-paper-data="{&quot;origPos&quot;:null}" fill="#00ff33" stroke="#000000" stroke-width="1" stroke-linecap="butt"/><path d="M187.04817,170.64189c0.72131,1.35245 -0.39668,2.49501 -1.90767,1.77038c-0.72508,-0.34773 -1.27163,-1.85787 -2.00207,-2.38435c-0.84559,-0.60947 -1.81368,-0.54973 -2.62434,-1.09017c-0.65028,-0.04414 -1.16408,-0.58562 -1.16408,-1.24709c0,-0.67638 0.53722,-1.22729 1.20824,-1.24932c2.0447,-0.42648 5.73101,2.77761 6.48991,4.20054z" data-paper-data="{&quot;origPos&quot;:null}" fill="#ffffff" stroke="none" stroke-width="0.5" stroke-linecap="butt"/><path d="M237.68589,255.38844c0,2.31269 -4.78496,4.1875 -10.6875,4.1875c-5.90254,0 -10.6875,-1.87481 -10.6875,-4.1875c0,-2.31269 4.78496,-4.1875 10.6875,-4.1875c5.90254,0 10.6875,1.87481 10.6875,4.1875z" data-paper-data="{&quot;origPos&quot;:null}" fill="#ffea00" stroke="#000000" stroke-width="1" stroke-linecap="butt"/><path d="M236.44341,254.16217c0.94155,0.71349 -0.51781,1.31627 -2.49016,0.93398c-0.94648,-0.18345 -1.65991,-0.98014 -2.61338,-1.25789c-1.10379,-0.32153 -2.36748,-0.29002 -3.42567,-0.57513c-0.84884,-0.02328 -1.51952,-0.30894 -1.51952,-0.65791c0,-0.35683 0.70126,-0.64747 1.57717,-0.65909c2.66904,-0.225 7.48094,1.46535 8.47156,2.21603z" data-paper-data="{&quot;origPos&quot;:null}" fill="#ffffff" stroke="none" stroke-width="0.5" stroke-linecap="butt"/><path d="M62.50874,35.5105l2.32264,-2.08012l10.96792,12.24661l-2.32264,2.08012z" data-paper-data="{&quot;origRot&quot;:0,&quot;origPos&quot;:null}" fill="#ff0000" stroke="#000000" stroke-width="1" stroke-linecap="butt"/><path d="M87.70971,67.52708l1.91861,-11.08519l15.7656,2.72869l-1.91861,11.08519z" data-paper-data="{&quot;origPos&quot;:null,&quot;origRot&quot;:0}" fill="#ff0000" stroke="#000000" stroke-width="1" stroke-linecap="butt"/><path d="M95.95672,59.445c-1.49524,8.63908 -9.76587,14.42076 -18.47298,12.91374c-8.70711,-1.50702 -14.55347,-9.73205 -13.05823,-18.37113c1.49524,-8.63908 9.76587,-14.42076 18.47298,-12.91374c8.70711,1.50702 14.55347,9.73205 13.05823,18.37113z" data-paper-data="{&quot;origPos&quot;:null,&quot;origRot&quot;:0}" fill="#ff0000" stroke="#000000" stroke-width="2" stroke-linecap="butt"/><path d="M86.4751,54.12504c0.23547,-1.36048 1.52925,-2.27249 2.88973,-2.03702c1.36048,0.23547 2.27249,1.52925 2.03702,2.88973c-0.23547,1.36048 -1.52925,2.27249 -2.88973,2.03702c-1.36048,-0.23547 -2.27249,-1.52925 -2.03702,-2.88973z" data-paper-data="{&quot;origPos&quot;:null,&quot;origRot&quot;:0}" fill="#000000" stroke="none" stroke-width="0.5" stroke-linecap="butt"/><path d="M108.71949,59.74617c1.15642,0.20015 1.66437,2.84391 1.13456,5.905c-0.52981,3.06109 -1.89676,5.38034 -3.05318,5.18019c-1.15642,-0.20015 -1.66437,-2.84391 -1.13456,-5.905c0.52981,-3.06109 1.89676,-5.38034 3.05318,-5.18019z" data-paper-data="{&quot;origPos&quot;:null,&quot;origRot&quot;:0}" fill="#ff0000" stroke="#000000" stroke-width="1" stroke-linecap="butt"/><path d="M106.24663,60.84047c1.56456,0.27079 2.52746,2.25494 2.15071,4.43171c-0.37675,2.17678 -1.9505,3.72188 -3.51506,3.45109c-1.56456,-0.27079 -2.52746,-2.25494 -2.15071,-4.43171c0.37675,-2.17678 1.9505,-3.72188 3.51506,-3.45109z" data-paper-data="{&quot;origPos&quot;:null,&quot;origRot&quot;:0}" fill="#ff0000" stroke="#000000" stroke-width="1" stroke-linecap="butt"/><path d="M168,73.81251v-71.8125h152v71.8125z" data-paper-data="{&quot;origPos&quot;:null}" fill="url(#color-4)" stroke="#82827f" stroke-width="1" stroke-linecap="butt"/><path d="M105.74922,61.51553c2.58492,0.44739 4.43226,2.24383 4.12615,4.01247c-0.30611,1.76863 -2.64976,2.8397 -5.23468,2.39231c-2.58492,-0.44739 -4.43226,-2.24383 -4.12615,-4.01247c0.30611,-1.76863 2.64976,-2.8397 5.23468,-2.39231z" data-paper-data="{&quot;origPos&quot;:null,&quot;origRot&quot;:0}" fill="#ff0000" stroke="#000000" stroke-width="0" stroke-linecap="butt"/><path d="M174.25919,73.18062c0,6.21557 -5.19742,11.2543 -11.60876,11.2543c-6.41134,0 -11.60876,-5.03873 -11.60876,-11.25429c0,-6.21557 5.19742,-11.25429 11.60876,-11.25429c6.41134,0 11.60876,5.03873 11.60876,11.2543z" data-paper-data="{&quot;origPos&quot;:null}" fill="#ff0000" stroke="#000000" stroke-width="1" stroke-linecap="butt"/><path d="M172.90961,68.54107c1.02273,1.91759 -0.56244,3.53758 -2.70481,2.51016c-1.02807,-0.49303 -1.80299,-2.6342 -2.83866,-3.38068c-1.19893,-0.86414 -2.57156,-0.77944 -3.72096,-1.54571c-0.92201,-0.06259 -1.65051,-0.83033 -1.65051,-1.7682c0,-0.95902 0.76171,-1.74013 1.71312,-1.77136c2.8991,-0.60469 8.12579,3.93828 9.20181,5.9558z" data-paper-data="{&quot;origPos&quot;:null}" fill="#ffffff" stroke="none" stroke-width="0.5" stroke-linecap="butt"/><path d="" fill="#005010" stroke="none" stroke-width="0.5" stroke-linecap="butt"/><path d="M232.99935,83.30657c0,6.14601 -5.13925,11.12833 -11.47884,11.12833c-6.33958,0 -11.47884,-4.98232 -11.47884,-11.12833c0,-6.14601 5.13926,-11.12834 11.47884,-11.12834c6.33959,0 11.47884,4.98233 11.47884,11.12834z" data-paper-data="{&quot;origPos&quot;:null}" fill="#ff0000" stroke="#000000" stroke-width="1" stroke-linecap="butt"/><path d="M231.66487,78.71895c1.01128,1.89612 -0.55615,3.49799 -2.67455,2.48207c-1.01656,-0.48752 -1.78282,-2.60473 -2.80689,-3.34285c-1.18552,-0.85447 -2.54277,-0.77072 -3.67931,-1.52841c-0.91169,-0.06189 -1.63204,-0.82104 -1.63204,-1.74841c0,-0.94828 0.75318,-1.72066 1.69395,-1.75154c2.86666,-0.59793 8.03485,3.89419 9.09882,5.88914z" data-paper-data="{&quot;origPos&quot;:null}" fill="#ffffff" stroke="none" stroke-width="0.5" stroke-linecap="butt"/><path d="M297.99933,94.63991c0,6.14601 -5.13925,11.12833 -11.47884,11.12833c-6.33958,0 -11.47884,-4.98232 -11.47884,-11.12833c0,-6.14601 5.13925,-11.12834 11.47884,-11.12834c6.33959,0 11.47884,4.98233 11.47884,11.12834z" data-paper-data="{&quot;origPos&quot;:null}" fill="#ff0000" stroke="#000000" stroke-width="1" stroke-linecap="butt"/><path d="M296.66487,90.05228c1.01128,1.89612 -0.55615,3.49799 -2.67455,2.48207c-1.01655,-0.48752 -1.78282,-2.60473 -2.80689,-3.34285c-1.18552,-0.85447 -2.54278,-0.77072 -3.67931,-1.52841c-0.91169,-0.06189 -1.63204,-0.82104 -1.63204,-1.74841c0,-0.94828 0.75318,-1.72066 1.69395,-1.75154c2.86666,-0.59793 8.03485,3.89419 9.09882,5.88914z" data-paper-data="{&quot;origPos&quot;:null}" fill="#ffffff" stroke="none" stroke-width="0.5" stroke-linecap="butt"/><text transform="translate(172,29.56252) scale(0.69502,0.69502)" font-size="40" xml:space="preserve" data-paper-data="{&quot;origPos&quot;:null}" fill="url(#color-5)" fill-rule="nonzero" stroke="none" stroke-width="1" stroke-linecap="butt" stroke-linejoin="miter" stroke-miterlimit="10" stroke-dasharray="" stroke-dashoffset="0" font-family="Marker" font-weight="normal" text-anchor="start" style="mix-blend-mode: normal"><tspan x="0" dy="0"> Plants</tspan><tspan x="0" dy="46.150000000000006px">Helikopters</tspan></text><text transform="translate(282,29.97193) scale(0.65338,0.65338)" font-size="40" xml:space="preserve" data-paper-data="{&quot;origPos&quot;:null}" fill="#002aff" fill-rule="nonzero" stroke="none" stroke-width="1" stroke-linecap="butt" stroke-linejoin="miter" stroke-miterlimit="10" stroke-dasharray="" stroke-dashoffset="0" font-family="Marker" font-weight="normal" text-anchor="start" style="mix-blend-mode: normal"><tspan x="0" dy="0">vs</tspan></text></g></g></svg>